<?xml version="1.0" encoding="UTF-8"?>
<svg xmlns="http://www.w3.org/2000/svg" xmlns:xlink="http://www.w3.org/1999/xlink" width="1920" height="1080" viewBox="0 0 1920 1080">
<defs>
<g>
<g id="glyph-0-0">
<path d="M 1.488281 -0.53125 C 2.617188 -0.53125 3.339844 -0.683594 3.65625 -0.992188 C 3.976562 -1.300781 4.132812 -1.882812 4.132812 -2.746094 L 4.132812 -11.308594 C 4.132812 -11.855469 4.070312 -12.246094 3.945312 -12.480469 C 3.816406 -12.710938 3.585938 -12.824219 3.246094 -12.824219 C 3.0625 -12.824219 2.785156 -12.765625 2.410156 -12.640625 C 2.171875 -12.570312 1.84375 -12.453125 1.433594 -12.292969 L 1.433594 -12.859375 L 7.042969 -15.277344 L 7.433594 -15.277344 L 7.433594 -2.613281 C 7.433594 -1.804688 7.5625 -1.253906 7.824219 -0.964844 C 8.085938 -0.675781 8.75 -0.53125 9.820312 -0.53125 L 9.820312 0 L 1.488281 0 Z "/>
</g>
<g id="glyph-0-1">
<path d="M 0.378906 -0.511719 C 2.746094 -3.070312 4.285156 -4.855469 5.003906 -5.859375 C 6.101562 -7.378906 6.652344 -8.722656 6.652344 -9.894531 C 6.652344 -10.589844 6.441406 -11.238281 6.015625 -11.84375 C 5.59375 -12.449219 4.9375 -12.75 4.046875 -12.75 C 3.265625 -12.75 2.609375 -12.480469 2.074219 -11.9375 C 1.785156 -11.640625 1.527344 -11.242188 1.300781 -10.742188 L 0.695312 -10.742188 C 1.1875 -12.28125 1.867188 -13.425781 2.734375 -14.164062 C 3.601562 -14.90625 4.578125 -15.277344 5.664062 -15.277344 C 6.691406 -15.277344 7.625 -14.921875 8.464844 -14.210938 C 9.304688 -13.496094 9.722656 -12.449219 9.722656 -11.066406 C 9.722656 -10.34375 9.523438 -9.601562 9.132812 -8.84375 C 8.738281 -8.085938 8.074219 -7.257812 7.140625 -6.371094 L 3.753906 -3.136719 L 3.753906 -2.953125 L 6.910156 -2.953125 C 8.011719 -2.953125 8.730469 -3.042969 9.066406 -3.222656 C 9.402344 -3.402344 9.742188 -3.886719 10.082031 -4.675781 L 10.613281 -4.675781 L 9.613281 0 L 0.378906 0 Z "/>
</g>
</g>
</defs>
<g fill="rgb(96.078431%, 96.862745%, 98.039216%)" fill-opacity="1">
<use xlink:href="#glyph-0-0" x="30" y="36.666992"/>
<use xlink:href="#glyph-0-1" x="41" y="36.666992"/>
</g>
</svg>
