<?xml version="1.0" encoding="UTF-8"?>
<svg xmlns="http://www.w3.org/2000/svg" xmlns:xlink="http://www.w3.org/1999/xlink" width="1920" height="1080" viewBox="0 0 1920 1080">
<defs>
<g>
<g id="glyph-0-0">
<path d="M 1.261719 -0.453125 C 2.222656 -0.453125 2.835938 -0.582031 3.109375 -0.84375 C 3.378906 -1.105469 3.515625 -1.601562 3.515625 -2.332031 L 3.515625 -9.609375 C 3.515625 -10.078125 3.460938 -10.410156 3.351562 -10.605469 C 3.246094 -10.804688 3.046875 -10.902344 2.757812 -10.902344 C 2.605469 -10.902344 2.367188 -10.851562 2.046875 -10.746094 C 1.84375 -10.683594 1.566406 -10.585938 1.21875 -10.449219 L 1.21875 -10.929688 L 5.984375 -12.988281 L 6.316406 -12.988281 L 6.316406 -2.222656 C 6.316406 -1.535156 6.429688 -1.066406 6.648438 -0.820312 C 6.871094 -0.574219 7.4375 -0.453125 8.347656 -0.453125 L 8.347656 0 L 1.261719 0 Z "/>
</g>
<g id="glyph-0-1">
<path d="M 1.632812 2.996094 C 2.203125 2.605469 2.636719 2.257812 2.925781 1.964844 C 3.433594 1.453125 3.6875 0.972656 3.6875 0.515625 C 3.6875 0.386719 3.660156 0.28125 3.597656 0.203125 C 3.53125 0.128906 3.433594 0.09375 3.3125 0.09375 C 3.25 0.09375 3.171875 0.101562 3.082031 0.117188 C 2.988281 0.132812 2.925781 0.136719 2.886719 0.136719 C 2.511719 0.136719 2.1875 0.0078125 1.914062 -0.257812 C 1.640625 -0.523438 1.503906 -0.878906 1.503906 -1.328125 C 1.503906 -1.800781 1.644531 -2.1875 1.933594 -2.480469 C 2.21875 -2.777344 2.589844 -2.925781 3.054688 -2.925781 C 3.621094 -2.925781 4.082031 -2.726562 4.441406 -2.328125 C 4.800781 -1.933594 4.980469 -1.402344 4.980469 -0.738281 C 4.980469 0.277344 4.574219 1.199219 3.761719 2.027344 C 3.320312 2.472656 2.683594 2.933594 1.855469 3.414062 Z "/>
</g>
<g id="glyph-0-2">
<path d="M 0.324219 -0.433594 C 2.335938 -2.609375 3.644531 -4.125 4.253906 -4.980469 C 5.1875 -6.273438 5.652344 -7.414062 5.652344 -8.410156 C 5.652344 -9 5.472656 -9.554688 5.113281 -10.066406 C 4.753906 -10.582031 4.195312 -10.835938 3.441406 -10.835938 C 2.777344 -10.835938 2.214844 -10.605469 1.761719 -10.144531 C 1.515625 -9.894531 1.296875 -9.554688 1.105469 -9.132812 L 0.589844 -9.132812 C 1.007812 -10.441406 1.585938 -11.410156 2.324219 -12.042969 C 3.0625 -12.671875 3.890625 -12.988281 4.816406 -12.988281 C 5.6875 -12.988281 6.480469 -12.683594 7.195312 -12.078125 C 7.90625 -11.472656 8.265625 -10.582031 8.265625 -9.40625 C 8.265625 -8.792969 8.097656 -8.164062 7.761719 -7.515625 C 7.425781 -6.871094 6.863281 -6.171875 6.070312 -5.414062 L 3.191406 -2.664062 L 3.191406 -2.507812 L 5.875 -2.507812 C 6.808594 -2.507812 7.421875 -2.585938 7.707031 -2.738281 C 7.992188 -2.894531 8.28125 -3.304688 8.570312 -3.976562 L 9.019531 -3.976562 L 8.171875 0 L 0.324219 0 Z "/>
</g>
<g id="glyph-0-3">
<path d="M 3.402344 -4.195312 C 3.414062 -2.660156 3.53125 -1.621094 3.746094 -1.082031 C 3.960938 -0.546875 4.285156 -0.277344 4.722656 -0.277344 C 5.269531 -0.277344 5.636719 -0.773438 5.828125 -1.769531 C 5.933594 -2.316406 5.984375 -3.125 5.984375 -4.195312 L 5.984375 -8.523438 C 5.984375 -10.054688 5.875 -11.089844 5.660156 -11.625 C 5.441406 -12.164062 5.121094 -12.433594 4.703125 -12.433594 C 4.28125 -12.433594 3.957031 -12.160156 3.734375 -11.617188 C 3.515625 -11.074219 3.402344 -10.042969 3.402344 -8.523438 Z M 0.433594 -6.273438 C 0.433594 -8.527344 0.9375 -10.273438 1.945312 -11.511719 C 2.746094 -12.496094 3.660156 -12.988281 4.695312 -12.988281 C 5.886719 -12.988281 6.894531 -12.382812 7.710938 -11.167969 C 8.539062 -9.925781 8.957031 -8.367188 8.957031 -6.484375 C 8.957031 -4.265625 8.484375 -2.535156 7.542969 -1.300781 C 6.75 -0.261719 5.804688 0.257812 4.703125 0.257812 C 3.929688 0.257812 3.269531 0.03125 2.722656 -0.425781 C 2.175781 -0.878906 1.707031 -1.464844 1.320312 -2.1875 C 0.988281 -2.796875 0.753906 -3.492188 0.617188 -4.28125 C 0.539062 -4.742188 0.476562 -5.40625 0.433594 -6.273438 Z "/>
</g>
<g id="glyph-0-4">
<rect x="0" y="0" width="0" height="0" mask="url(#mask-0)"/>
</g>
<g id="glyph-0-5">
<path d="M 5.523438 -0.785156 C 6.207031 -0.785156 6.667969 -1.234375 6.910156 -2.140625 C 7.039062 -2.636719 7.101562 -3.355469 7.101562 -4.289062 C 7.101562 -5.371094 7.003906 -6.234375 6.808594 -6.875 C 6.609375 -7.519531 6.210938 -7.839844 5.609375 -7.839844 C 5.203125 -7.839844 4.839844 -7.660156 4.519531 -7.304688 C 4.199219 -6.949219 4.039062 -6.691406 4.039062 -6.53125 L 4.039062 -1.9375 C 4.039062 -1.753906 4.191406 -1.515625 4.496094 -1.222656 C 4.800781 -0.929688 5.144531 -0.785156 5.523438 -0.785156 Z M 0.339844 3.441406 C 0.746094 3.398438 1.023438 3.304688 1.171875 3.160156 C 1.320312 3.015625 1.394531 2.742188 1.394531 2.34375 L 1.394531 -7.148438 C 1.394531 -7.542969 1.324219 -7.808594 1.183594 -7.945312 C 1.046875 -8.085938 0.78125 -8.179688 0.386719 -8.238281 L 0.386719 -8.699219 L 3.992188 -8.699219 L 3.992188 -7.453125 C 4.25 -7.882812 4.503906 -8.199219 4.75 -8.402344 C 5.191406 -8.757812 5.757812 -8.9375 6.445312 -8.9375 C 7.4375 -8.9375 8.257812 -8.566406 8.914062 -7.820312 C 9.570312 -7.078125 9.898438 -5.96875 9.898438 -4.492188 C 9.898438 -3.121094 9.542969 -1.984375 8.839844 -1.082031 C 8.136719 -0.183594 7.28125 0.265625 6.273438 0.265625 C 5.757812 0.265625 5.265625 0.117188 4.804688 -0.183594 C 4.558594 -0.34375 4.304688 -0.570312 4.039062 -0.867188 L 4.039062 0.730469 C 4.046875 1.578125 4.050781 2.054688 4.058594 2.160156 C 4.101562 2.65625 4.230469 2.996094 4.441406 3.183594 C 4.652344 3.367188 5.007812 3.472656 5.507812 3.503906 L 5.507812 3.890625 L 0.339844 3.890625 Z "/>
</g>
<g id="glyph-0-6">
<path d="M 0.304688 -0.453125 C 0.636719 -0.53125 0.871094 -0.636719 1.011719 -0.769531 C 1.148438 -0.902344 1.21875 -1.175781 1.21875 -1.59375 L 1.21875 -11.214844 C 1.21875 -11.613281 1.152344 -11.875 1.023438 -12 C 0.894531 -12.121094 0.65625 -12.222656 0.304688 -12.304688 L 0.304688 -12.765625 L 3.882812 -12.765625 L 3.882812 -1.59375 C 3.882812 -1.175781 3.949219 -0.902344 4.085938 -0.773438 C 4.222656 -0.644531 4.460938 -0.539062 4.804688 -0.453125 L 4.804688 0 L 0.304688 0 Z "/>
</g>
<g id="glyph-0-7">
<path d="M 4.140625 -1.078125 C 4.449219 -1.078125 4.734375 -1.171875 5 -1.355469 C 5.148438 -1.464844 5.320312 -1.640625 5.523438 -1.871094 L 5.523438 -4.628906 C 5.019531 -4.507812 4.578125 -4.3125 4.195312 -4.050781 C 3.550781 -3.601562 3.226562 -3.027344 3.226562 -2.332031 C 3.226562 -1.921875 3.320312 -1.609375 3.507812 -1.398438 C 3.695312 -1.1875 3.90625 -1.078125 4.140625 -1.078125 Z M 0.480469 -1.761719 C 0.480469 -2.609375 0.886719 -3.285156 1.707031 -3.78125 C 2.523438 -4.28125 3.804688 -4.78125 5.550781 -5.285156 L 5.550781 -6.660156 C 5.550781 -7.21875 5.433594 -7.632812 5.199219 -7.898438 C 4.960938 -8.167969 4.542969 -8.300781 3.9375 -8.300781 C 3.601562 -8.300781 3.320312 -8.238281 3.105469 -8.113281 C 2.886719 -7.988281 2.777344 -7.828125 2.777344 -7.636719 C 2.777344 -7.5625 2.789062 -7.5 2.8125 -7.453125 C 2.835938 -7.402344 2.875 -7.351562 2.925781 -7.296875 L 3.035156 -7.167969 C 3.121094 -7.0625 3.191406 -6.945312 3.242188 -6.820312 C 3.292969 -6.695312 3.320312 -6.5625 3.320312 -6.417969 C 3.320312 -6.0625 3.203125 -5.789062 2.964844 -5.59375 C 2.726562 -5.398438 2.453125 -5.304688 2.140625 -5.304688 C 1.777344 -5.304688 1.46875 -5.410156 1.210938 -5.625 C 0.957031 -5.839844 0.832031 -6.152344 0.832031 -6.558594 C 0.832031 -7.285156 1.171875 -7.859375 1.855469 -8.28125 C 2.535156 -8.707031 3.375 -8.917969 4.371094 -8.917969 C 5.441406 -8.917969 6.335938 -8.714844 7.054688 -8.300781 C 7.769531 -7.882812 8.125 -7.113281 8.125 -5.996094 L 8.125 -1.421875 C 8.125 -1.285156 8.160156 -1.167969 8.230469 -1.074219 C 8.300781 -0.980469 8.382812 -0.929688 8.46875 -0.929688 C 8.542969 -0.929688 8.605469 -0.945312 8.664062 -0.972656 C 8.722656 -1 8.816406 -1.074219 8.9375 -1.199219 L 9.222656 -0.800781 C 8.855469 -0.371094 8.445312 -0.0703125 7.996094 0.101562 C 7.714844 0.210938 7.414062 0.265625 7.101562 0.265625 C 6.542969 0.265625 6.132812 0.105469 5.875 -0.222656 C 5.726562 -0.40625 5.621094 -0.679688 5.550781 -1.042969 C 5.027344 -0.519531 4.441406 -0.152344 3.78125 0.0664062 C 3.382812 0.199219 2.988281 0.265625 2.601562 0.265625 C 2.085938 0.265625 1.601562 0.101562 1.152344 -0.226562 C 0.703125 -0.554688 0.480469 -1.066406 0.480469 -1.761719 Z "/>
</g>
<g id="glyph-0-8">
<path d="M 0.304688 -0.453125 C 0.648438 -0.496094 0.902344 -0.589844 1.066406 -0.734375 C 1.230469 -0.878906 1.308594 -1.164062 1.308594 -1.59375 L 1.308594 -7.148438 C 1.308594 -7.53125 1.242188 -7.792969 1.113281 -7.941406 C 0.980469 -8.089844 0.710938 -8.1875 0.304688 -8.238281 L 0.304688 -8.699219 L 3.882812 -8.699219 L 3.882812 -7.34375 C 4.183594 -7.796875 4.566406 -8.171875 5.03125 -8.472656 C 5.496094 -8.769531 6.011719 -8.917969 6.578125 -8.917969 C 7.386719 -8.917969 8.015625 -8.710938 8.460938 -8.292969 C 8.90625 -7.875 9.132812 -7.140625 9.132812 -6.085938 L 9.132812 -1.523438 C 9.132812 -1.097656 9.203125 -0.824219 9.347656 -0.699219 C 9.492188 -0.578125 9.734375 -0.496094 10.070312 -0.453125 L 10.070312 0 L 5.636719 0 L 5.636719 -0.453125 C 5.972656 -0.519531 6.203125 -0.613281 6.328125 -0.730469 C 6.449219 -0.847656 6.511719 -1.109375 6.511719 -1.523438 L 6.511719 -6.097656 C 6.511719 -6.527344 6.46875 -6.851562 6.382812 -7.066406 C 6.234375 -7.453125 5.941406 -7.644531 5.507812 -7.644531 C 5.179688 -7.644531 4.878906 -7.527344 4.605469 -7.292969 C 4.332031 -7.054688 4.121094 -6.816406 3.976562 -6.578125 L 3.976562 -1.523438 C 3.976562 -1.109375 4.035156 -0.84375 4.160156 -0.730469 C 4.28125 -0.613281 4.511719 -0.519531 4.851562 -0.453125 L 4.851562 0 L 0.304688 0 Z "/>
</g>
<g id="glyph-0-9">
<path d="M 0.304688 -7.867188 L 0.304688 -8.394531 C 0.46875 -8.546875 0.675781 -8.726562 0.921875 -8.9375 C 1.25 -9.238281 1.554688 -9.550781 1.84375 -9.867188 C 2.417969 -10.496094 2.9375 -11.167969 3.402344 -11.890625 L 3.882812 -11.890625 L 3.882812 -8.699219 L 5.683594 -8.699219 L 5.683594 -7.867188 L 3.882812 -7.867188 L 3.882812 -2.1875 C 3.882812 -1.921875 3.921875 -1.699219 4.003906 -1.523438 C 4.125 -1.246094 4.328125 -1.105469 4.613281 -1.105469 C 4.859375 -1.105469 5.0625 -1.195312 5.230469 -1.371094 C 5.394531 -1.546875 5.5625 -1.785156 5.726562 -2.09375 L 6.179688 -1.871094 C 5.957031 -1.355469 5.695312 -0.933594 5.386719 -0.609375 C 4.84375 -0.0351562 4.183594 0.25 3.402344 0.25 C 2.960938 0.25 2.574219 0.167969 2.242188 0 C 1.601562 -0.320312 1.28125 -0.902344 1.28125 -1.742188 L 1.28125 -7.867188 Z "/>
</g>
<g id="glyph-0-10">
<path d="M 0.480469 -2.859375 L 1.003906 -2.859375 C 1.1875 -1.957031 1.535156 -1.316406 2.039062 -0.945312 C 2.542969 -0.574219 3.058594 -0.386719 3.589844 -0.386719 C 4.074219 -0.386719 4.429688 -0.496094 4.65625 -0.714844 C 4.886719 -0.933594 5 -1.21875 5 -1.578125 C 5 -1.914062 4.875 -2.203125 4.628906 -2.445312 C 4.496094 -2.574219 4.277344 -2.710938 3.976562 -2.859375 L 2.574219 -3.542969 C 1.835938 -3.90625 1.308594 -4.296875 0.988281 -4.722656 C 0.660156 -5.148438 0.5 -5.648438 0.5 -6.226562 C 0.5 -6.957031 0.753906 -7.589844 1.261719 -8.121094 C 1.773438 -8.652344 2.488281 -8.917969 3.402344 -8.917969 C 3.804688 -8.917969 4.226562 -8.851562 4.675781 -8.722656 C 5.125 -8.589844 5.40625 -8.523438 5.515625 -8.523438 C 5.667969 -8.523438 5.777344 -8.554688 5.84375 -8.621094 C 5.90625 -8.683594 5.960938 -8.773438 6.003906 -8.890625 L 6.417969 -8.890625 L 6.417969 -6.160156 L 5.941406 -6.160156 C 5.761719 -6.800781 5.46875 -7.3125 5.0625 -7.703125 C 4.65625 -8.089844 4.183594 -8.28125 3.644531 -8.28125 C 3.226562 -8.28125 2.914062 -8.164062 2.707031 -7.933594 C 2.5 -7.699219 2.398438 -7.445312 2.398438 -7.175781 C 2.398438 -6.953125 2.492188 -6.734375 2.675781 -6.511719 C 2.851562 -6.285156 3.191406 -6.050781 3.6875 -5.8125 L 4.722656 -5.3125 C 5.363281 -5.003906 5.828125 -4.707031 6.125 -4.417969 C 6.617188 -3.925781 6.863281 -3.320312 6.863281 -2.601562 C 6.863281 -1.898438 6.609375 -1.246094 6.101562 -0.640625 C 5.59375 -0.0351562 4.832031 0.265625 3.820312 0.265625 C 3.566406 0.265625 3.3125 0.242188 3.058594 0.1875 C 2.800781 0.136719 2.488281 0.046875 2.113281 -0.0820312 L 1.789062 -0.195312 C 1.671875 -0.238281 1.601562 -0.261719 1.574219 -0.265625 C 1.546875 -0.273438 1.507812 -0.277344 1.464844 -0.277344 C 1.363281 -0.277344 1.269531 -0.234375 1.195312 -0.152344 C 1.117188 -0.0703125 1.03125 0.0703125 0.929688 0.265625 L 0.480469 0.265625 Z "/>
</g>
</g>
<image id="source-27" x="0" y="0" width="0" height="0"/>
<mask id="mask-0">
<use xlink:href="#source-27"/>
</mask>
</defs>
<g fill="rgb(96.078431%, 96.862745%, 98.039216%)" fill-opacity="1">
<use xlink:href="#glyph-0-0" x="30" y="34.166992"/>
<use xlink:href="#glyph-0-1" x="39" y="34.166992"/>
<use xlink:href="#glyph-0-2" x="44" y="34.166992"/>
<use xlink:href="#glyph-0-3" x="53" y="34.166992"/>
<use xlink:href="#glyph-0-3" x="62" y="34.166992"/>
<use xlink:href="#glyph-0-4" x="71" y="34.166992"/>
<use xlink:href="#glyph-0-5" x="76" y="34.166992"/>
<use xlink:href="#glyph-0-6" x="87" y="34.166992"/>
<use xlink:href="#glyph-0-7" x="92" y="34.166992"/>
<use xlink:href="#glyph-0-8" x="101" y="34.166992"/>
<use xlink:href="#glyph-0-9" x="112" y="34.166992"/>
<use xlink:href="#glyph-0-10" x="118" y="34.166992"/>
</g>
</svg>
