<?xml version="1.0" encoding="UTF-8"?>
<svg xmlns="http://www.w3.org/2000/svg" xmlns:xlink="http://www.w3.org/1999/xlink" width="1920" height="1080" viewBox="0 0 1920 1080">
<defs>
<g>
<g id="glyph-0-0">
<path d="M 0.5 -1.566406 C 0.632812 -1.214844 0.789062 -0.9375 0.964844 -0.730469 C 1.273438 -0.367188 1.65625 -0.1875 2.113281 -0.1875 C 2.363281 -0.1875 2.578125 -0.265625 2.757812 -0.421875 C 2.941406 -0.578125 3.03125 -0.796875 3.03125 -1.078125 C 3.03125 -1.332031 2.9375 -1.550781 2.757812 -1.738281 C 2.636719 -1.859375 2.386719 -2.035156 2.003906 -2.273438 L 1.339844 -2.6875 C 1.140625 -2.816406 0.980469 -2.941406 0.863281 -3.070312 C 0.640625 -3.316406 0.53125 -3.589844 0.53125 -3.886719 C 0.53125 -4.277344 0.660156 -4.605469 0.921875 -4.863281 C 1.183594 -5.125 1.527344 -5.253906 1.960938 -5.253906 C 2.136719 -5.253906 2.351562 -5.210938 2.597656 -5.125 C 2.847656 -5.039062 2.992188 -4.992188 3.027344 -4.992188 C 3.125 -4.992188 3.1875 -5.015625 3.226562 -5.0625 C 3.261719 -5.109375 3.292969 -5.171875 3.3125 -5.253906 L 3.472656 -5.253906 L 3.640625 -3.601562 L 3.457031 -3.601562 C 3.328125 -4.097656 3.125 -4.445312 2.847656 -4.644531 C 2.566406 -4.84375 2.289062 -4.941406 2.015625 -4.941406 C 1.804688 -4.941406 1.617188 -4.878906 1.460938 -4.753906 C 1.300781 -4.628906 1.222656 -4.453125 1.222656 -4.230469 C 1.222656 -4.03125 1.285156 -3.859375 1.40625 -3.71875 C 1.527344 -3.574219 1.714844 -3.421875 1.972656 -3.265625 L 2.65625 -2.84375 C 3.082031 -2.582031 3.382812 -2.339844 3.558594 -2.117188 C 3.730469 -1.894531 3.816406 -1.632812 3.816406 -1.328125 C 3.816406 -0.921875 3.664062 -0.582031 3.355469 -0.308594 C 3.046875 -0.0351562 2.65625 0.101562 2.175781 0.101562 C 1.933594 0.101562 1.683594 0.0585938 1.421875 -0.0351562 C 1.160156 -0.125 1.011719 -0.171875 0.972656 -0.171875 C 0.882812 -0.171875 0.820312 -0.144531 0.789062 -0.0859375 C 0.757812 -0.03125 0.734375 0.0273438 0.726562 0.0898438 L 0.554688 0.0898438 L 0.324219 -1.566406 Z "/>
</g>
<g id="glyph-0-1">
<path d="M 0.636719 -4.902344 C 0.636719 -5.011719 0.675781 -5.105469 0.75 -5.183594 C 0.828125 -5.261719 0.921875 -5.300781 1.03125 -5.300781 C 1.140625 -5.300781 1.234375 -5.261719 1.3125 -5.183594 C 1.390625 -5.109375 1.429688 -5.015625 1.429688 -4.902344 C 1.429688 -4.792969 1.390625 -4.699219 1.3125 -4.625 C 1.234375 -4.546875 1.140625 -4.507812 1.03125 -4.507812 C 0.921875 -4.507812 0.828125 -4.546875 0.75 -4.625 C 0.675781 -4.703125 0.636719 -4.792969 0.636719 -4.902344 Z M 0.152344 -0.105469 C 0.421875 -0.132812 0.59375 -0.179688 0.664062 -0.246094 C 0.734375 -0.3125 0.769531 -0.492188 0.769531 -0.789062 L 0.769531 -2.601562 C 0.769531 -2.765625 0.757812 -2.878906 0.738281 -2.941406 C 0.699219 -3.046875 0.617188 -3.097656 0.496094 -3.097656 C 0.46875 -3.097656 0.441406 -3.097656 0.414062 -3.089844 C 0.386719 -3.085938 0.3125 -3.066406 0.1875 -3.03125 L 0.1875 -3.148438 L 0.347656 -3.203125 C 0.792969 -3.347656 1.101562 -3.453125 1.277344 -3.527344 C 1.347656 -3.558594 1.390625 -3.574219 1.414062 -3.574219 C 1.417969 -3.554688 1.421875 -3.535156 1.421875 -3.515625 L 1.421875 -0.789062 C 1.421875 -0.5 1.457031 -0.320312 1.523438 -0.246094 C 1.59375 -0.171875 1.75 -0.125 1.996094 -0.105469 L 1.996094 0 L 0.152344 0 Z "/>
</g>
<g id="glyph-0-2">
<path d="M 1.933594 -3.582031 C 2.25 -3.582031 2.523438 -3.5 2.75 -3.335938 C 2.980469 -3.171875 3.09375 -2.992188 3.09375 -2.796875 C 3.09375 -2.714844 3.066406 -2.636719 3.007812 -2.566406 C 2.949219 -2.492188 2.859375 -2.457031 2.738281 -2.457031 C 2.648438 -2.457031 2.570312 -2.488281 2.503906 -2.546875 C 2.4375 -2.609375 2.386719 -2.699219 2.359375 -2.8125 L 2.3125 -2.996094 C 2.28125 -3.128906 2.222656 -3.226562 2.140625 -3.28125 C 2.058594 -3.335938 1.949219 -3.359375 1.8125 -3.359375 C 1.523438 -3.359375 1.277344 -3.234375 1.082031 -2.984375 C 0.882812 -2.730469 0.78125 -2.394531 0.78125 -1.976562 C 0.78125 -1.59375 0.890625 -1.253906 1.109375 -0.949219 C 1.328125 -0.644531 1.625 -0.492188 1.996094 -0.492188 C 2.261719 -0.492188 2.496094 -0.578125 2.699219 -0.75 C 2.816406 -0.851562 2.949219 -1.007812 3.09375 -1.222656 L 3.203125 -1.160156 C 3.058594 -0.855469 2.90625 -0.613281 2.746094 -0.4375 C 2.4375 -0.0976562 2.085938 0.0703125 1.683594 0.0703125 C 1.289062 0.0703125 0.9375 -0.0820312 0.632812 -0.394531 C 0.328125 -0.707031 0.179688 -1.128906 0.179688 -1.664062 C 0.179688 -2.1875 0.34375 -2.636719 0.675781 -3.015625 C 1.007812 -3.394531 1.425781 -3.582031 1.933594 -3.582031 Z "/>
</g>
<g id="glyph-0-3">
<path d="M 0.015625 -0.105469 C 0.257812 -0.125 0.417969 -0.164062 0.496094 -0.226562 C 0.574219 -0.289062 0.613281 -0.429688 0.613281 -0.636719 L 0.613281 -4.441406 C 0.613281 -4.621094 0.582031 -4.738281 0.519531 -4.785156 C 0.460938 -4.832031 0.371094 -4.855469 0.257812 -4.855469 C 0.210938 -4.855469 0.167969 -4.855469 0.132812 -4.851562 C 0.0976562 -4.851562 0.0585938 -4.847656 0.015625 -4.84375 L 0.015625 -4.949219 L 0.355469 -5.039062 C 0.617188 -5.109375 0.839844 -5.171875 1.023438 -5.234375 C 1.132812 -5.269531 1.199219 -5.289062 1.214844 -5.289062 C 1.230469 -5.289062 1.238281 -5.285156 1.242188 -5.28125 C 1.246094 -5.273438 1.25 -5.257812 1.25 -5.238281 L 1.25 -2.042969 L 2.300781 -2.96875 C 2.378906 -3.039062 2.429688 -3.09375 2.457031 -3.132812 C 2.480469 -3.171875 2.496094 -3.207031 2.496094 -3.238281 C 2.496094 -3.296875 2.464844 -3.335938 2.410156 -3.347656 C 2.351562 -3.363281 2.25 -3.375 2.105469 -3.382812 L 2.105469 -3.488281 L 3.6875 -3.488281 L 3.6875 -3.382812 C 3.402344 -3.367188 3.175781 -3.308594 3.003906 -3.214844 C 2.832031 -3.121094 2.5 -2.847656 2.011719 -2.398438 L 1.789062 -2.195312 L 2.492188 -1.285156 C 2.851562 -0.816406 3.121094 -0.507812 3.304688 -0.355469 C 3.488281 -0.203125 3.679688 -0.117188 3.886719 -0.0976562 L 3.886719 0 L 2.195312 0 L 2.195312 -0.105469 L 2.328125 -0.113281 C 2.371094 -0.117188 2.410156 -0.125 2.445312 -0.140625 C 2.480469 -0.15625 2.5 -0.179688 2.5 -0.214844 C 2.5 -0.242188 2.492188 -0.269531 2.480469 -0.292969 C 2.46875 -0.316406 2.449219 -0.34375 2.425781 -0.375 L 1.25 -1.925781 L 1.25 -0.519531 C 1.25 -0.34375 1.3125 -0.230469 1.441406 -0.171875 C 1.519531 -0.136719 1.648438 -0.117188 1.835938 -0.113281 L 1.835938 0 L 0.015625 0 Z "/>
</g>
</g>
</defs>
<g fill="rgb(96.078431%, 96.862745%, 98.039216%)" fill-opacity="1">
<use xlink:href="#glyph-0-0" x="30" y="25.833008"/>
<use xlink:href="#glyph-0-1" x="34" y="25.833008"/>
<use xlink:href="#glyph-0-2" x="36" y="25.833008"/>
<use xlink:href="#glyph-0-3" x="39" y="25.833008"/>
</g>
</svg>
