<?xml version="1.0" encoding="UTF-8"?>
<svg xmlns="http://www.w3.org/2000/svg" xmlns:xlink="http://www.w3.org/1999/xlink" width="1920" height="1080" viewBox="0 0 1920 1080">
<defs>
<g>
<g id="glyph-0-0">
<path d="M 2.546875 -2.40625 C 2.214844 -2.296875 1.941406 -2.171875 1.722656 -2.039062 C 1.304688 -1.78125 1.097656 -1.492188 1.097656 -1.164062 C 1.097656 -0.898438 1.183594 -0.707031 1.359375 -0.582031 C 1.472656 -0.5 1.597656 -0.460938 1.734375 -0.460938 C 1.925781 -0.460938 2.109375 -0.511719 2.285156 -0.621094 C 2.460938 -0.726562 2.546875 -0.863281 2.546875 -1.027344 Z M 0.324219 -0.863281 C 0.324219 -1.285156 0.535156 -1.632812 0.953125 -1.914062 C 1.21875 -2.085938 1.753906 -2.324219 2.546875 -2.621094 L 2.546875 -2.992188 C 2.546875 -3.285156 2.519531 -3.492188 2.460938 -3.605469 C 2.363281 -3.800781 2.160156 -3.898438 1.847656 -3.898438 C 1.699219 -3.898438 1.5625 -3.859375 1.429688 -3.785156 C 1.296875 -3.707031 1.226562 -3.601562 1.226562 -3.464844 C 1.226562 -3.429688 1.234375 -3.371094 1.25 -3.289062 C 1.265625 -3.207031 1.273438 -3.152344 1.273438 -3.128906 C 1.273438 -2.96875 1.21875 -2.855469 1.109375 -2.792969 C 1.050781 -2.753906 0.976562 -2.734375 0.894531 -2.734375 C 0.765625 -2.734375 0.664062 -2.777344 0.59375 -2.863281 C 0.523438 -2.949219 0.492188 -3.042969 0.492188 -3.148438 C 0.492188 -3.351562 0.617188 -3.5625 0.867188 -3.78125 C 1.117188 -4.003906 1.484375 -4.113281 1.964844 -4.113281 C 2.527344 -4.113281 2.910156 -3.933594 3.109375 -3.566406 C 3.214844 -3.367188 3.269531 -3.078125 3.269531 -2.695312 L 3.269531 -0.953125 C 3.269531 -0.785156 3.28125 -0.671875 3.304688 -0.609375 C 3.339844 -0.496094 3.417969 -0.4375 3.539062 -0.4375 C 3.605469 -0.4375 3.660156 -0.449219 3.703125 -0.46875 C 3.746094 -0.488281 3.820312 -0.539062 3.929688 -0.617188 L 3.929688 -0.390625 C 3.835938 -0.277344 3.734375 -0.183594 3.628906 -0.113281 C 3.464844 -0.00390625 3.300781 0.0507812 3.132812 0.0507812 C 2.9375 0.0507812 2.792969 -0.0117188 2.707031 -0.140625 C 2.617188 -0.265625 2.570312 -0.417969 2.5625 -0.59375 C 2.339844 -0.402344 2.152344 -0.261719 1.996094 -0.167969 C 1.734375 -0.0117188 1.484375 0.0664062 1.246094 0.0664062 C 0.996094 0.0664062 0.78125 -0.0234375 0.597656 -0.199219 C 0.417969 -0.375 0.324219 -0.59375 0.324219 -0.863281 Z "/>
</g>
<g id="glyph-0-1">
<path d="M 0.0390625 -2.382812 C 0.785156 -3.101562 1.269531 -3.601562 1.488281 -3.878906 C 1.707031 -4.15625 1.820312 -4.445312 1.820312 -4.746094 C 1.820312 -4.984375 1.738281 -5.175781 1.574219 -5.320312 C 1.410156 -5.464844 1.234375 -5.539062 1.042969 -5.539062 C 0.804688 -5.539062 0.613281 -5.460938 0.464844 -5.304688 C 0.375 -5.210938 0.28125 -5.054688 0.183594 -4.835938 L 0.03125 -4.875 C 0.0976562 -5.214844 0.242188 -5.480469 0.464844 -5.671875 C 0.691406 -5.867188 0.953125 -5.964844 1.25 -5.964844 C 1.550781 -5.964844 1.804688 -5.867188 2.007812 -5.675781 C 2.210938 -5.484375 2.3125 -5.257812 2.3125 -4.988281 C 2.3125 -4.710938 2.238281 -4.445312 2.082031 -4.195312 C 1.929688 -3.945312 1.625 -3.617188 1.171875 -3.214844 L 0.648438 -2.703125 C 0.734375 -2.703125 0.867188 -2.703125 1.050781 -2.699219 C 1.234375 -2.695312 1.367188 -2.695312 1.453125 -2.695312 C 1.847656 -2.695312 2.085938 -2.710938 2.175781 -2.742188 C 2.261719 -2.773438 2.363281 -2.878906 2.476562 -3.066406 L 2.578125 -3.019531 L 2.292969 -2.292969 L 0.0390625 -2.292969 Z "/>
</g>
<g id="glyph-0-2">
<path d="M 4.753906 -1.652344 L 4.753906 -1.046875 L 0.265625 -1.046875 L 0.265625 -1.652344 Z M 4.753906 -3.445312 L 4.753906 -2.839844 L 0.265625 -2.839844 L 0.265625 -3.445312 Z "/>
</g>
<g id="glyph-0-3">
<path d="M 2.21875 -2.488281 C 2.414062 -2.488281 2.617188 -2.542969 2.828125 -2.652344 C 3.039062 -2.761719 3.15625 -2.855469 3.1875 -2.929688 C 3.199219 -2.957031 3.207031 -3.066406 3.214844 -3.253906 C 3.222656 -3.441406 3.230469 -3.589844 3.230469 -3.707031 C 3.230469 -4.308594 3.128906 -4.796875 2.925781 -5.175781 C 2.722656 -5.550781 2.425781 -5.738281 2.035156 -5.738281 C 1.753906 -5.738281 1.523438 -5.609375 1.347656 -5.351562 C 1.171875 -5.09375 1.085938 -4.710938 1.085938 -4.199219 C 1.085938 -3.777344 1.167969 -3.382812 1.332031 -3.027344 C 1.496094 -2.667969 1.789062 -2.488281 2.21875 -2.488281 Z M 2.097656 -5.984375 C 2.734375 -5.984375 3.226562 -5.730469 3.574219 -5.222656 C 3.921875 -4.714844 4.09375 -4.148438 4.09375 -3.523438 C 4.09375 -3.085938 4.011719 -2.636719 3.847656 -2.183594 C 3.679688 -1.730469 3.441406 -1.324219 3.125 -0.96875 C 2.757812 -0.558594 2.292969 -0.25 1.726562 -0.0507812 C 1.410156 0.0625 1.015625 0.148438 0.535156 0.207031 L 0.492188 0.0351562 C 0.792969 -0.0351562 1.042969 -0.109375 1.242188 -0.1875 C 1.601562 -0.328125 1.886719 -0.503906 2.105469 -0.707031 C 2.410156 -1 2.65625 -1.324219 2.839844 -1.6875 C 3.023438 -2.046875 3.140625 -2.347656 3.1875 -2.589844 L 3.035156 -2.476562 C 2.820312 -2.316406 2.566406 -2.203125 2.277344 -2.144531 C 2.128906 -2.109375 1.992188 -2.09375 1.867188 -2.09375 C 1.375 -2.09375 0.984375 -2.265625 0.695312 -2.617188 C 0.410156 -2.964844 0.265625 -3.378906 0.265625 -3.863281 C 0.265625 -4.480469 0.4375 -4.988281 0.777344 -5.386719 C 1.121094 -5.785156 1.5625 -5.984375 2.097656 -5.984375 Z "/>
</g>
</g>
</defs>
<g fill="rgb(96.078431%, 96.862745%, 98.039216%)" fill-opacity="1">
<use xlink:href="#glyph-0-0" x="30" y="26.666992"/>
<use xlink:href="#glyph-0-1" x="34" y="26.666992"/>
<use xlink:href="#glyph-0-2" x="37" y="26.666992"/>
<use xlink:href="#glyph-0-3" x="42" y="26.666992"/>
</g>
</svg>
