<?xml version="1.0" encoding="UTF-8"?>
<svg xmlns="http://www.w3.org/2000/svg" xmlns:xlink="http://www.w3.org/1999/xlink" width="1920" height="1080" viewBox="0 0 1920 1080">
<defs>
<g>
<g id="glyph-0-0">
<path d="M 2.707031 -2.554688 C 2.351562 -2.4375 2.0625 -2.308594 1.832031 -2.167969 C 1.386719 -1.894531 1.167969 -1.582031 1.167969 -1.234375 C 1.167969 -0.957031 1.257812 -0.75 1.445312 -0.617188 C 1.5625 -0.53125 1.695312 -0.488281 1.84375 -0.488281 C 2.046875 -0.488281 2.242188 -0.546875 2.429688 -0.660156 C 2.613281 -0.773438 2.707031 -0.917969 2.707031 -1.09375 Z M 0.347656 -0.917969 C 0.347656 -1.363281 0.570312 -1.734375 1.015625 -2.035156 C 1.296875 -2.21875 1.863281 -2.46875 2.707031 -2.785156 L 2.707031 -3.175781 C 2.707031 -3.492188 2.675781 -3.710938 2.613281 -3.832031 C 2.507812 -4.039062 2.292969 -4.140625 1.964844 -4.140625 C 1.808594 -4.140625 1.660156 -4.101562 1.515625 -4.019531 C 1.375 -3.9375 1.304688 -3.824219 1.304688 -3.679688 C 1.304688 -3.644531 1.3125 -3.582031 1.328125 -3.492188 C 1.34375 -3.40625 1.351562 -3.347656 1.351562 -3.324219 C 1.351562 -3.152344 1.292969 -3.03125 1.179688 -2.964844 C 1.117188 -2.925781 1.039062 -2.90625 0.949219 -2.90625 C 0.8125 -2.90625 0.707031 -2.949219 0.632812 -3.042969 C 0.558594 -3.132812 0.519531 -3.234375 0.519531 -3.34375 C 0.519531 -3.558594 0.652344 -3.785156 0.921875 -4.019531 C 1.1875 -4.253906 1.574219 -4.371094 2.089844 -4.371094 C 2.6875 -4.371094 3.089844 -4.179688 3.300781 -3.789062 C 3.414062 -3.578125 3.472656 -3.269531 3.472656 -2.863281 L 3.472656 -1.015625 C 3.472656 -0.835938 3.484375 -0.714844 3.507812 -0.644531 C 3.546875 -0.523438 3.632812 -0.464844 3.757812 -0.464844 C 3.828125 -0.464844 3.886719 -0.476562 3.933594 -0.496094 C 3.980469 -0.519531 4.058594 -0.570312 4.171875 -0.65625 L 4.171875 -0.414062 C 4.074219 -0.292969 3.96875 -0.195312 3.855469 -0.121094 C 3.683594 -0.00390625 3.507812 0.0546875 3.328125 0.0546875 C 3.121094 0.0546875 2.96875 -0.0117188 2.875 -0.148438 C 2.78125 -0.28125 2.730469 -0.445312 2.722656 -0.632812 C 2.488281 -0.429688 2.289062 -0.277344 2.121094 -0.179688 C 1.839844 -0.015625 1.574219 0.0703125 1.324219 0.0703125 C 1.058594 0.0703125 0.828125 -0.0234375 0.636719 -0.210938 C 0.441406 -0.394531 0.347656 -0.632812 0.347656 -0.917969 Z "/>
</g>
<g id="glyph-0-1">
<path d="M 0.0429688 -0.152344 C 0.324219 -0.175781 0.511719 -0.226562 0.605469 -0.300781 C 0.695312 -0.375 0.742188 -0.539062 0.742188 -0.785156 L 0.742188 -2.863281 C 0.742188 -3.167969 0.714844 -3.386719 0.65625 -3.515625 C 0.601562 -3.648438 0.496094 -3.710938 0.347656 -3.710938 C 0.316406 -3.710938 0.273438 -3.707031 0.222656 -3.699219 C 0.171875 -3.691406 0.121094 -3.683594 0.0664062 -3.671875 L 0.0664062 -3.824219 C 0.242188 -3.886719 0.417969 -3.949219 0.605469 -4.011719 C 0.789062 -4.078125 0.917969 -4.121094 0.988281 -4.148438 C 1.140625 -4.207031 1.300781 -4.273438 1.460938 -4.347656 C 1.484375 -4.347656 1.496094 -4.339844 1.5 -4.324219 C 1.503906 -4.308594 1.507812 -4.277344 1.507812 -4.230469 L 1.507812 -3.472656 C 1.703125 -3.746094 1.894531 -3.960938 2.078125 -4.113281 C 2.261719 -4.265625 2.449219 -4.34375 2.648438 -4.34375 C 2.804688 -4.34375 2.929688 -4.296875 3.03125 -4.203125 C 3.128906 -4.109375 3.175781 -3.992188 3.175781 -3.851562 C 3.175781 -3.726562 3.140625 -3.617188 3.0625 -3.53125 C 2.988281 -3.445312 2.894531 -3.402344 2.78125 -3.402344 C 2.664062 -3.402344 2.546875 -3.457031 2.429688 -3.566406 C 2.308594 -3.671875 2.214844 -3.726562 2.148438 -3.726562 C 2.042969 -3.726562 1.910156 -3.640625 1.753906 -3.464844 C 1.597656 -3.292969 1.515625 -3.113281 1.515625 -2.929688 L 1.515625 -0.847656 C 1.515625 -0.582031 1.578125 -0.402344 1.703125 -0.296875 C 1.824219 -0.195312 2.027344 -0.144531 2.316406 -0.152344 L 2.316406 0 L 0.0429688 0 Z "/>
</g>
<g id="glyph-0-2">
<path d="M 2.164062 -4.324219 C 2.597656 -4.324219 2.976562 -4.175781 3.300781 -3.875 C 3.628906 -3.574219 3.789062 -3.152344 3.789062 -2.601562 L 0.863281 -2.601562 C 0.894531 -1.886719 1.054688 -1.367188 1.347656 -1.042969 C 1.640625 -0.714844 1.984375 -0.554688 2.382812 -0.554688 C 2.707031 -0.554688 2.980469 -0.636719 3.199219 -0.808594 C 3.421875 -0.976562 3.625 -1.214844 3.8125 -1.527344 L 3.976562 -1.472656 C 3.847656 -1.082031 3.613281 -0.71875 3.265625 -0.386719 C 2.921875 -0.0546875 2.496094 0.109375 1.996094 0.109375 C 1.417969 0.109375 0.972656 -0.109375 0.65625 -0.542969 C 0.339844 -0.980469 0.183594 -1.484375 0.183594 -2.050781 C 0.183594 -2.667969 0.367188 -3.203125 0.734375 -3.652344 C 1.097656 -4.101562 1.574219 -4.324219 2.164062 -4.324219 Z M 1.894531 -3.988281 C 1.542969 -3.988281 1.277344 -3.832031 1.09375 -3.523438 C 0.996094 -3.355469 0.925781 -3.148438 0.878906 -2.894531 L 2.828125 -2.894531 C 2.792969 -3.203125 2.734375 -3.433594 2.652344 -3.582031 C 2.5 -3.851562 2.25 -3.988281 1.894531 -3.988281 Z "/>
</g>
</g>
</defs>
<g fill="rgb(30.196078%, 65.098039%, 100%)" fill-opacity="1">
<use xlink:href="#glyph-0-0" x="30" y="27.083008"/>
<use xlink:href="#glyph-0-1" x="34" y="27.083008"/>
<use xlink:href="#glyph-0-2" x="37" y="27.083008"/>
<use xlink:href="#glyph-0-0" x="41" y="27.083008"/>
</g>
</svg>
