<?xml version="1.0" encoding="UTF-8"?>
<svg xmlns="http://www.w3.org/2000/svg" xmlns:xlink="http://www.w3.org/1999/xlink" width="1920" height="1080" viewBox="0 0 1920 1080">
<defs>
<g>
<g id="glyph-0-0">
<path d="M 0.167969 -0.28125 C 0.371094 -0.3125 0.542969 -0.378906 0.6875 -0.476562 C 0.832031 -0.578125 1.054688 -0.808594 1.355469 -1.167969 C 1.476562 -1.320312 1.640625 -1.53125 1.84375 -1.800781 C 2.046875 -2.074219 2.214844 -2.292969 2.34375 -2.457031 L 0.777344 -4.863281 C 0.648438 -5.058594 0.546875 -5.179688 0.472656 -5.226562 C 0.394531 -5.273438 0.285156 -5.308594 0.136719 -5.328125 L 0.136719 -5.628906 L 3.191406 -5.628906 L 3.191406 -5.328125 C 2.910156 -5.289062 2.746094 -5.261719 2.699219 -5.242188 C 2.648438 -5.226562 2.625 -5.179688 2.625 -5.101562 C 2.625 -5.011719 2.730469 -4.808594 2.9375 -4.492188 C 3.148438 -4.175781 3.332031 -3.914062 3.492188 -3.707031 C 3.898438 -4.214844 4.148438 -4.542969 4.25 -4.683594 C 4.347656 -4.828125 4.398438 -4.949219 4.398438 -5.042969 C 4.398438 -5.164062 4.351562 -5.238281 4.253906 -5.269531 C 4.15625 -5.300781 3.996094 -5.320312 3.773438 -5.328125 L 3.773438 -5.628906 L 5.824219 -5.628906 L 5.824219 -5.328125 C 5.671875 -5.300781 5.546875 -5.269531 5.449219 -5.226562 C 5.265625 -5.148438 5.109375 -5.027344 4.976562 -4.863281 L 3.730469 -3.324219 L 5.542969 -0.539062 C 5.585938 -0.46875 5.636719 -0.417969 5.691406 -0.386719 C 5.746094 -0.351562 5.816406 -0.316406 5.910156 -0.28125 L 5.910156 0 L 2.964844 0 L 2.964844 -0.28125 C 3.136719 -0.289062 3.273438 -0.308594 3.371094 -0.339844 C 3.472656 -0.371094 3.519531 -0.441406 3.519531 -0.542969 C 3.519531 -0.609375 3.480469 -0.71875 3.394531 -0.871094 C 3.347656 -0.960938 3.269531 -1.09375 3.164062 -1.257812 C 3.105469 -1.351562 3.019531 -1.476562 2.90625 -1.636719 C 2.796875 -1.800781 2.695312 -1.949219 2.601562 -2.089844 C 2.34375 -1.757812 2.152344 -1.503906 2.023438 -1.324219 C 1.757812 -0.949219 1.625 -0.710938 1.625 -0.601562 C 1.625 -0.476562 1.675781 -0.390625 1.777344 -0.351562 C 1.878906 -0.3125 2.027344 -0.289062 2.230469 -0.28125 L 2.230469 0 L 0.167969 0 Z "/>
</g>
<g id="glyph-0-1">
<rect x="0" y="0" width="0" height="0" mask="url(#mask-0)"/>
</g>
<g id="glyph-0-2">
<path d="M 0.207031 -0.28125 C 1.507812 -1.6875 2.355469 -2.667969 2.75 -3.222656 C 3.355469 -4.058594 3.660156 -4.796875 3.660156 -5.441406 C 3.660156 -5.824219 3.542969 -6.183594 3.308594 -6.515625 C 3.078125 -6.847656 2.714844 -7.011719 2.226562 -7.011719 C 1.796875 -7.011719 1.433594 -6.863281 1.140625 -6.566406 C 0.980469 -6.402344 0.839844 -6.183594 0.714844 -5.910156 L 0.382812 -5.910156 C 0.652344 -6.757812 1.027344 -7.382812 1.503906 -7.792969 C 1.980469 -8.199219 2.519531 -8.402344 3.117188 -8.402344 C 3.679688 -8.402344 4.195312 -8.207031 4.65625 -7.816406 C 5.117188 -7.421875 5.347656 -6.847656 5.347656 -6.085938 C 5.347656 -5.6875 5.238281 -5.28125 5.023438 -4.863281 C 4.804688 -4.445312 4.441406 -3.992188 3.925781 -3.503906 L 2.066406 -1.726562 L 2.066406 -1.625 L 3.800781 -1.625 C 4.40625 -1.625 4.800781 -1.671875 4.988281 -1.773438 C 5.171875 -1.871094 5.355469 -2.136719 5.542969 -2.570312 L 5.835938 -2.570312 L 5.289062 0 L 0.207031 0 Z "/>
</g>
<g id="glyph-1-0">
<path d="M 10.96875 -4.417969 L 8.390625 -6.996094 L 8.390625 -4.859375 L 1.398438 -4.859375 L 1.398438 -3.976562 L 8.390625 -3.976562 L 8.390625 -1.839844 Z "/>
</g>
</g>
<image id="source-781" x="0" y="0" width="0" height="0"/>
<mask id="mask-0">
<use xlink:href="#source-781"/>
</mask>
</defs>
<g fill="rgb(30.196078%, 65.098039%, 100%)" fill-opacity="1">
<use xlink:href="#glyph-0-0" x="30" y="31.816406"/>
<use xlink:href="#glyph-0-1" x="36" y="31.816406"/>
</g>
<g fill="rgb(30.196078%, 65.098039%, 100%)" fill-opacity="1">
<use xlink:href="#glyph-1-0" x="39" y="31.816406"/>
</g>
<g fill="rgb(30.196078%, 65.098039%, 100%)" fill-opacity="1">
<use xlink:href="#glyph-0-1" x="51" y="31.816406"/>
<use xlink:href="#glyph-0-2" x="54" y="31.816406"/>
<use xlink:href="#glyph-0-0" x="60" y="31.816406"/>
</g>
</svg>
