<?xml version="1.0" encoding="UTF-8"?>
<svg xmlns="http://www.w3.org/2000/svg" xmlns:xlink="http://www.w3.org/1999/xlink" width="1920" height="1080" viewBox="0 0 1920 1080">
<defs>
<g>
<g id="glyph-0-0">
<path d="M 2.902344 -3.753906 C 3.5625 -3.765625 4.003906 -3.839844 4.226562 -3.980469 C 4.578125 -4.207031 4.753906 -4.6875 4.753906 -5.429688 C 4.753906 -5.9375 4.667969 -6.34375 4.496094 -6.65625 C 4.328125 -6.96875 4 -7.121094 3.519531 -7.121094 C 3.300781 -7.121094 3.140625 -7.097656 3.046875 -7.042969 C 2.949219 -6.992188 2.902344 -6.890625 2.902344 -6.738281 Z M 0.179688 -0.28125 C 0.542969 -0.308594 0.789062 -0.382812 0.914062 -0.511719 C 1.039062 -0.640625 1.101562 -0.902344 1.101562 -1.296875 L 1.101562 -6.207031 C 1.101562 -6.625 1.039062 -6.890625 0.910156 -7 C 0.785156 -7.109375 0.539062 -7.1875 0.179688 -7.226562 L 0.179688 -7.507812 L 3.753906 -7.507812 C 4.703125 -7.507812 5.421875 -7.355469 5.914062 -7.046875 C 6.410156 -6.738281 6.65625 -6.210938 6.65625 -5.464844 C 6.65625 -5.097656 6.558594 -4.753906 6.367188 -4.433594 C 6.171875 -4.113281 5.855469 -3.855469 5.410156 -3.660156 C 5.074219 -3.523438 4.734375 -3.441406 4.398438 -3.414062 C 4.0625 -3.382812 3.5625 -3.367188 2.902344 -3.367188 L 2.902344 -1.296875 C 2.902344 -0.886719 2.972656 -0.621094 3.109375 -0.492188 C 3.246094 -0.367188 3.503906 -0.296875 3.878906 -0.28125 L 3.878906 0 L 0.179688 0 Z "/>
</g>
<g id="glyph-0-1">
<path d="M 0.179688 -0.265625 C 0.382812 -0.292969 0.53125 -0.347656 0.625 -0.429688 C 0.722656 -0.515625 0.769531 -0.683594 0.769531 -0.9375 L 0.769531 -6.597656 C 0.769531 -6.816406 0.730469 -6.972656 0.652344 -7.0625 C 0.570312 -7.148438 0.414062 -7.207031 0.179688 -7.238281 L 0.179688 -7.507812 L 2.328125 -7.507812 L 2.328125 -4.382812 C 2.554688 -4.65625 2.792969 -4.871094 3.046875 -5.019531 C 3.296875 -5.171875 3.582031 -5.246094 3.894531 -5.246094 C 4.320312 -5.246094 4.675781 -5.121094 4.953125 -4.875 C 5.230469 -4.625 5.371094 -4.203125 5.371094 -3.609375 L 5.371094 -0.9375 C 5.371094 -0.6875 5.414062 -0.523438 5.5 -0.449219 C 5.582031 -0.371094 5.726562 -0.308594 5.925781 -0.265625 L 5.925781 0 L 3.316406 0 L 3.316406 -0.265625 C 3.515625 -0.304688 3.648438 -0.359375 3.722656 -0.429688 C 3.792969 -0.496094 3.828125 -0.652344 3.828125 -0.894531 L 3.828125 -3.585938 C 3.828125 -3.839844 3.804688 -4.027344 3.753906 -4.15625 C 3.667969 -4.382812 3.496094 -4.496094 3.238281 -4.496094 C 3.046875 -4.496094 2.847656 -4.410156 2.644531 -4.230469 C 2.441406 -4.054688 2.339844 -3.933594 2.339844 -3.867188 L 2.339844 -0.894531 C 2.339844 -0.652344 2.375 -0.496094 2.445312 -0.429688 C 2.519531 -0.359375 2.65625 -0.304688 2.855469 -0.265625 L 2.855469 0 L 0.179688 0 Z "/>
</g>
<g id="glyph-0-2">
<path d="M 2.4375 -0.632812 C 2.617188 -0.632812 2.785156 -0.6875 2.941406 -0.796875 C 3.027344 -0.863281 3.128906 -0.964844 3.25 -1.101562 L 3.25 -2.722656 C 2.953125 -2.652344 2.691406 -2.535156 2.46875 -2.382812 C 2.089844 -2.117188 1.898438 -1.78125 1.898438 -1.371094 C 1.898438 -1.128906 1.953125 -0.945312 2.0625 -0.820312 C 2.175781 -0.695312 2.296875 -0.632812 2.4375 -0.632812 Z M 0.28125 -1.035156 C 0.28125 -1.535156 0.523438 -1.929688 1.003906 -2.222656 C 1.484375 -2.515625 2.238281 -2.8125 3.265625 -3.109375 L 3.265625 -3.917969 C 3.265625 -4.246094 3.195312 -4.488281 3.058594 -4.648438 C 2.917969 -4.804688 2.671875 -4.882812 2.316406 -4.882812 C 2.117188 -4.882812 1.953125 -4.84375 1.824219 -4.769531 C 1.695312 -4.695312 1.632812 -4.605469 1.632812 -4.492188 C 1.632812 -4.449219 1.640625 -4.414062 1.65625 -4.382812 C 1.667969 -4.355469 1.691406 -4.324219 1.71875 -4.292969 L 1.785156 -4.214844 C 1.835938 -4.152344 1.875 -4.085938 1.90625 -4.011719 C 1.9375 -3.9375 1.953125 -3.859375 1.953125 -3.777344 C 1.953125 -3.566406 1.882812 -3.402344 1.742188 -3.289062 C 1.605469 -3.175781 1.441406 -3.121094 1.257812 -3.121094 C 1.046875 -3.121094 0.863281 -3.183594 0.714844 -3.308594 C 0.5625 -3.4375 0.488281 -3.617188 0.488281 -3.855469 C 0.488281 -4.285156 0.6875 -4.621094 1.089844 -4.871094 C 1.492188 -5.121094 1.984375 -5.246094 2.570312 -5.246094 C 3.199219 -5.246094 3.726562 -5.125 4.148438 -4.882812 C 4.570312 -4.636719 4.78125 -4.183594 4.78125 -3.527344 L 4.78125 -0.835938 C 4.78125 -0.757812 4.800781 -0.6875 4.839844 -0.632812 C 4.882812 -0.578125 4.929688 -0.546875 4.980469 -0.546875 C 5.023438 -0.546875 5.0625 -0.554688 5.097656 -0.574219 C 5.132812 -0.589844 5.183594 -0.632812 5.257812 -0.707031 L 5.425781 -0.472656 C 5.207031 -0.21875 4.96875 -0.0429688 4.703125 0.0585938 C 4.535156 0.125 4.363281 0.15625 4.175781 0.15625 C 3.847656 0.15625 3.609375 0.0625 3.457031 -0.128906 C 3.371094 -0.238281 3.304688 -0.398438 3.265625 -0.613281 C 2.957031 -0.304688 2.609375 -0.0898438 2.222656 0.0390625 C 1.988281 0.117188 1.757812 0.15625 1.53125 0.15625 C 1.226562 0.15625 0.941406 0.0625 0.679688 -0.132812 C 0.414062 -0.328125 0.28125 -0.628906 0.28125 -1.035156 Z "/>
</g>
<g id="glyph-0-3">
<path d="M 0.28125 -1.683594 L 0.589844 -1.683594 C 0.699219 -1.152344 0.902344 -0.773438 1.199219 -0.554688 C 1.496094 -0.335938 1.800781 -0.226562 2.109375 -0.226562 C 2.394531 -0.226562 2.605469 -0.292969 2.738281 -0.421875 C 2.871094 -0.550781 2.941406 -0.71875 2.941406 -0.925781 C 2.941406 -1.125 2.867188 -1.296875 2.722656 -1.4375 C 2.644531 -1.511719 2.515625 -1.59375 2.339844 -1.683594 L 1.511719 -2.082031 C 1.078125 -2.296875 0.769531 -2.527344 0.582031 -2.777344 C 0.390625 -3.027344 0.292969 -3.320312 0.292969 -3.660156 C 0.292969 -4.089844 0.441406 -4.464844 0.742188 -4.777344 C 1.042969 -5.089844 1.464844 -5.246094 2 -5.246094 C 2.234375 -5.246094 2.488281 -5.207031 2.75 -5.128906 C 3.015625 -5.050781 3.179688 -5.011719 3.242188 -5.011719 C 3.332031 -5.011719 3.398438 -5.03125 3.4375 -5.070312 C 3.476562 -5.109375 3.507812 -5.160156 3.53125 -5.230469 L 3.777344 -5.230469 L 3.777344 -3.625 L 3.492188 -3.625 C 3.386719 -4 3.21875 -4.300781 2.976562 -4.53125 C 2.738281 -4.757812 2.460938 -4.871094 2.144531 -4.871094 C 1.898438 -4.871094 1.714844 -4.804688 1.59375 -4.664062 C 1.472656 -4.527344 1.410156 -4.378906 1.410156 -4.21875 C 1.410156 -4.089844 1.464844 -3.960938 1.574219 -3.828125 C 1.679688 -3.695312 1.878906 -3.558594 2.171875 -3.417969 L 2.777344 -3.125 C 3.152344 -2.945312 3.429688 -2.769531 3.601562 -2.597656 C 3.890625 -2.308594 4.035156 -1.953125 4.035156 -1.53125 C 4.035156 -1.117188 3.886719 -0.734375 3.589844 -0.378906 C 3.289062 -0.0195312 2.84375 0.15625 2.246094 0.15625 C 2.097656 0.15625 1.949219 0.140625 1.796875 0.109375 C 1.648438 0.078125 1.464844 0.0273438 1.242188 -0.046875 L 1.050781 -0.113281 C 0.984375 -0.140625 0.941406 -0.152344 0.925781 -0.15625 C 0.910156 -0.160156 0.886719 -0.164062 0.863281 -0.164062 C 0.800781 -0.164062 0.746094 -0.136719 0.703125 -0.0898438 C 0.65625 -0.0390625 0.605469 0.0429688 0.546875 0.15625 L 0.28125 0.15625 Z "/>
</g>
<g id="glyph-0-4">
<path d="M 0.25 -2.550781 C 0.25 -3.402344 0.476562 -4.066406 0.929688 -4.539062 C 1.382812 -5.011719 1.929688 -5.246094 2.570312 -5.246094 C 2.9375 -5.246094 3.28125 -5.148438 3.601562 -4.957031 C 3.925781 -4.765625 4.171875 -4.5 4.34375 -4.160156 C 4.476562 -3.902344 4.566406 -3.570312 4.617188 -3.164062 C 4.640625 -2.972656 4.65625 -2.824219 4.65625 -2.722656 L 1.824219 -2.722656 C 1.847656 -2.277344 1.921875 -1.894531 2.039062 -1.566406 C 2.257812 -0.957031 2.636719 -0.652344 3.183594 -0.652344 C 3.445312 -0.652344 3.691406 -0.730469 3.921875 -0.894531 C 4.0625 -0.992188 4.238281 -1.15625 4.449219 -1.390625 L 4.703125 -1.230469 C 4.359375 -0.667969 3.960938 -0.273438 3.511719 -0.0546875 C 3.21875 0.0859375 2.878906 0.15625 2.5 0.15625 C 1.953125 0.15625 1.441406 -0.0585938 0.964844 -0.488281 C 0.488281 -0.917969 0.25 -1.605469 0.25 -2.550781 Z M 3.289062 -3.136719 C 3.28125 -3.789062 3.230469 -4.246094 3.136719 -4.507812 C 3.042969 -4.769531 2.855469 -4.898438 2.570312 -4.898438 C 2.28125 -4.898438 2.085938 -4.75 1.976562 -4.449219 C 1.871094 -4.148438 1.808594 -3.710938 1.796875 -3.136719 Z "/>
</g>
<g id="glyph-0-5">
<rect x="0" y="0" width="0" height="0" mask="url(#mask-0)"/>
</g>
<g id="glyph-0-6">
<path d="M 3.25 -0.460938 C 3.652344 -0.460938 3.921875 -0.726562 4.0625 -1.257812 C 4.140625 -1.550781 4.175781 -1.972656 4.175781 -2.523438 C 4.175781 -3.160156 4.121094 -3.667969 4.003906 -4.042969 C 3.886719 -4.421875 3.652344 -4.609375 3.296875 -4.609375 C 3.058594 -4.609375 2.847656 -4.507812 2.660156 -4.296875 C 2.472656 -4.085938 2.375 -3.933594 2.375 -3.839844 L 2.375 -1.140625 C 2.375 -1.03125 2.464844 -0.890625 2.644531 -0.71875 C 2.824219 -0.546875 3.023438 -0.460938 3.25 -0.460938 Z M 0.199219 2.023438 C 0.4375 2 0.601562 1.941406 0.6875 1.859375 C 0.773438 1.773438 0.820312 1.613281 0.820312 1.378906 L 0.820312 -4.203125 C 0.820312 -4.433594 0.777344 -4.59375 0.695312 -4.671875 C 0.613281 -4.753906 0.460938 -4.8125 0.226562 -4.84375 L 0.226562 -5.117188 L 2.347656 -5.117188 L 2.347656 -4.382812 C 2.5 -4.636719 2.648438 -4.824219 2.792969 -4.941406 C 3.054688 -5.152344 3.386719 -5.257812 3.792969 -5.257812 C 4.375 -5.257812 4.859375 -5.039062 5.242188 -4.601562 C 5.628906 -4.164062 5.820312 -3.511719 5.820312 -2.640625 C 5.820312 -1.835938 5.613281 -1.167969 5.199219 -0.636719 C 4.785156 -0.105469 4.28125 0.15625 3.6875 0.15625 C 3.382812 0.15625 3.097656 0.0703125 2.828125 -0.109375 C 2.683594 -0.203125 2.53125 -0.335938 2.375 -0.511719 L 2.375 0.429688 C 2.378906 0.929688 2.382812 1.207031 2.386719 1.269531 C 2.414062 1.5625 2.488281 1.761719 2.613281 1.871094 C 2.738281 1.980469 2.945312 2.042969 3.238281 2.0625 L 3.238281 2.289062 L 0.199219 2.289062 Z "/>
</g>
<g id="glyph-0-7">
<path d="M 2.863281 -5.257812 C 3.332031 -5.257812 3.734375 -5.144531 4.078125 -4.914062 C 4.417969 -4.6875 4.589844 -4.394531 4.589844 -4.035156 C 4.589844 -3.84375 4.523438 -3.679688 4.386719 -3.535156 C 4.25 -3.394531 4.078125 -3.324219 3.867188 -3.324219 C 3.726562 -3.324219 3.605469 -3.359375 3.5 -3.421875 C 3.300781 -3.539062 3.199219 -3.75 3.199219 -4.050781 C 3.199219 -4.085938 3.203125 -4.132812 3.207031 -4.195312 C 3.210938 -4.257812 3.210938 -4.328125 3.210938 -4.398438 C 3.210938 -4.59375 3.167969 -4.730469 3.074219 -4.800781 C 2.980469 -4.875 2.875 -4.910156 2.757812 -4.910156 C 2.414062 -4.910156 2.167969 -4.71875 2.023438 -4.34375 C 1.878906 -3.964844 1.804688 -3.53125 1.804688 -3.042969 C 1.804688 -2.347656 1.945312 -1.765625 2.21875 -1.296875 C 2.492188 -0.828125 2.863281 -0.589844 3.332031 -0.589844 C 3.625 -0.589844 3.875 -0.65625 4.078125 -0.785156 C 4.203125 -0.863281 4.355469 -1 4.535156 -1.203125 L 4.742188 -1.015625 C 4.378906 -0.511719 3.957031 -0.167969 3.472656 0.0234375 C 3.214844 0.121094 2.941406 0.167969 2.652344 0.167969 C 1.941406 0.167969 1.359375 -0.0859375 0.90625 -0.597656 C 0.453125 -1.105469 0.226562 -1.730469 0.226562 -2.464844 C 0.226562 -3.238281 0.46875 -3.894531 0.945312 -4.441406 C 1.425781 -4.984375 2.066406 -5.257812 2.863281 -5.257812 Z "/>
</g>
</g>
<image id="source-8" x="0" y="0" width="0" height="0"/>
<mask id="mask-0">
<use xlink:href="#source-8"/>
</mask>
</defs>
<g fill="rgb(30.196078%, 65.098039%, 100%)" fill-opacity="1">
<use xlink:href="#glyph-0-0" x="30" y="28.333008"/>
<use xlink:href="#glyph-0-1" x="37" y="28.333008"/>
<use xlink:href="#glyph-0-2" x="43" y="28.333008"/>
<use xlink:href="#glyph-0-3" x="49" y="28.333008"/>
<use xlink:href="#glyph-0-4" x="53" y="28.333008"/>
<use xlink:href="#glyph-0-5" x="58" y="28.333008"/>
<use xlink:href="#glyph-0-3" x="61" y="28.333008"/>
<use xlink:href="#glyph-0-6" x="65" y="28.333008"/>
<use xlink:href="#glyph-0-2" x="71" y="28.333008"/>
<use xlink:href="#glyph-0-7" x="77" y="28.333008"/>
<use xlink:href="#glyph-0-4" x="82" y="28.333008"/>
</g>
</svg>
