<?xml version="1.0" encoding="UTF-8"?>
<svg xmlns="http://www.w3.org/2000/svg" xmlns:xlink="http://www.w3.org/1999/xlink" width="1920" height="1080" viewBox="0 0 1920 1080">
<defs>
<g>
<g id="glyph-0-0">
<path d="M 0.25 -0.09375 C 1.242188 -1.125 1.914062 -1.882812 2.269531 -2.363281 C 2.625 -2.847656 2.804688 -3.316406 2.804688 -3.777344 C 2.804688 -4.179688 2.695312 -4.484375 2.476562 -4.695312 C 2.261719 -4.902344 2 -5.007812 1.699219 -5.007812 C 1.328125 -5.007812 1.027344 -4.875 0.796875 -4.601562 C 0.667969 -4.453125 0.546875 -4.222656 0.429688 -3.914062 L 0.257812 -3.949219 C 0.390625 -4.574219 0.621094 -5.007812 0.945312 -5.25 C 1.269531 -5.492188 1.617188 -5.613281 1.988281 -5.613281 C 2.449219 -5.613281 2.820312 -5.46875 3.101562 -5.183594 C 3.386719 -4.894531 3.527344 -4.539062 3.527344 -4.121094 C 3.527344 -3.675781 3.375 -3.25 3.066406 -2.835938 C 2.761719 -2.421875 2.09375 -1.691406 1.070312 -0.632812 L 2.9375 -0.632812 C 3.199219 -0.632812 3.382812 -0.664062 3.488281 -0.726562 C 3.59375 -0.789062 3.710938 -0.941406 3.84375 -1.183594 L 3.949219 -1.136719 L 3.5 0 L 0.25 0 Z "/>
</g>
<g id="glyph-0-1">
<rect x="0" y="0" width="0" height="0" mask="url(#mask-0)"/>
</g>
<g id="glyph-0-2">
<path d="M 4.347656 -0.507812 L 3.941406 -0.105469 L 2.339844 -1.695312 L 0.75 -0.105469 L 0.347656 -0.507812 L 1.9375 -2.113281 L 0.347656 -3.703125 L 0.75 -4.105469 L 2.339844 -2.515625 L 3.941406 -4.105469 L 4.347656 -3.703125 L 2.746094 -2.113281 Z "/>
</g>
<g id="glyph-0-3">
<path d="M 2.0625 -5.632812 L 3.632812 -2.113281 L 3.074219 -2.113281 L 1.957031 -4.746094 L 0.824219 -2.113281 L 0.269531 -2.113281 L 1.839844 -5.632812 Z "/>
</g>
<g id="glyph-0-4">
<path d="M 4.457031 -1.550781 L 4.457031 -0.980469 L 0.25 -0.980469 L 0.25 -1.550781 Z M 4.457031 -3.230469 L 4.457031 -2.660156 L 0.25 -2.660156 L 0.25 -3.230469 Z "/>
</g>
<g id="glyph-0-5">
<path d="M 2.09375 -0.136719 C 2.40625 -0.136719 2.644531 -0.226562 2.804688 -0.398438 C 2.964844 -0.570312 3.042969 -0.789062 3.042969 -1.050781 C 3.042969 -1.347656 2.957031 -1.585938 2.789062 -1.769531 C 2.621094 -1.953125 2.273438 -2.226562 1.746094 -2.601562 C 1.511719 -2.453125 1.34375 -2.261719 1.238281 -2.03125 C 1.132812 -1.796875 1.078125 -1.570312 1.078125 -1.355469 C 1.078125 -0.984375 1.175781 -0.6875 1.363281 -0.46875 C 1.554688 -0.25 1.800781 -0.136719 2.09375 -0.136719 Z M 2.148438 -3.246094 C 2.402344 -3.425781 2.578125 -3.578125 2.675781 -3.699219 C 2.84375 -3.90625 2.929688 -4.160156 2.929688 -4.457031 C 2.929688 -4.714844 2.851562 -4.933594 2.691406 -5.113281 C 2.53125 -5.292969 2.292969 -5.382812 1.96875 -5.382812 C 1.71875 -5.382812 1.511719 -5.304688 1.351562 -5.148438 C 1.1875 -4.988281 1.105469 -4.796875 1.105469 -4.574219 C 1.105469 -4.320312 1.203125 -4.082031 1.394531 -3.863281 C 1.585938 -3.644531 1.835938 -3.441406 2.148438 -3.246094 Z M 1.523438 -2.773438 C 1.164062 -3.0625 0.917969 -3.292969 0.789062 -3.460938 C 0.589844 -3.722656 0.488281 -4.011719 0.488281 -4.324219 C 0.488281 -4.683594 0.636719 -4.988281 0.933594 -5.238281 C 1.230469 -5.488281 1.617188 -5.609375 2.089844 -5.609375 C 2.527344 -5.609375 2.875 -5.492188 3.132812 -5.257812 C 3.390625 -5.019531 3.519531 -4.746094 3.519531 -4.433594 C 3.519531 -4.117188 3.386719 -3.832031 3.125 -3.582031 C 2.972656 -3.4375 2.726562 -3.269531 2.386719 -3.085938 C 2.847656 -2.742188 3.179688 -2.445312 3.378906 -2.191406 C 3.578125 -1.9375 3.679688 -1.636719 3.679688 -1.292969 C 3.679688 -0.902344 3.53125 -0.574219 3.238281 -0.308594 C 2.941406 -0.0429688 2.546875 0.0898438 2.054688 0.0898438 C 1.613281 0.0898438 1.234375 -0.0351562 0.917969 -0.277344 C 0.601562 -0.523438 0.445312 -0.847656 0.445312 -1.25 C 0.445312 -1.59375 0.554688 -1.898438 0.773438 -2.160156 C 0.917969 -2.332031 1.167969 -2.535156 1.523438 -2.773438 Z "/>
</g>
</g>
<image id="source-66" x="0" y="0" width="0" height="0"/>
<mask id="mask-0">
<use xlink:href="#source-66"/>
</mask>
</defs>
<g fill="rgb(30.196078%, 65.098039%, 100%)" fill-opacity="1">
<use xlink:href="#glyph-0-0" x="30" y="26.25"/>
<use xlink:href="#glyph-0-1" x="34" y="26.25"/>
<use xlink:href="#glyph-0-2" x="36" y="26.25"/>
<use xlink:href="#glyph-0-1" x="41" y="26.25"/>
<use xlink:href="#glyph-0-0" x="43" y="26.25"/>
<use xlink:href="#glyph-0-3" x="47" y="26.25"/>
<use xlink:href="#glyph-0-0" x="51" y="26.25"/>
<use xlink:href="#glyph-0-1" x="55" y="26.25"/>
<use xlink:href="#glyph-0-4" x="57" y="26.25"/>
<use xlink:href="#glyph-0-1" x="62" y="26.25"/>
<use xlink:href="#glyph-0-5" x="64" y="26.25"/>
</g>
</svg>
