<?xml version="1.0" encoding="UTF-8"?>
<svg xmlns="http://www.w3.org/2000/svg" xmlns:xlink="http://www.w3.org/1999/xlink" width="1920" height="1080" viewBox="0 0 1920 1080">
<defs>
<g>
<g id="glyph-0-0">
<path d="M 3.308594 -6.617188 C 3.972656 -6.617188 4.550781 -6.386719 5.050781 -5.929688 C 5.546875 -5.46875 5.796875 -4.820312 5.796875 -3.976562 L 1.320312 -3.976562 C 1.367188 -2.886719 1.613281 -2.09375 2.058594 -1.59375 C 2.503906 -1.09375 3.035156 -0.847656 3.644531 -0.847656 C 4.140625 -0.847656 4.554688 -0.976562 4.894531 -1.234375 C 5.234375 -1.492188 5.546875 -1.859375 5.832031 -2.335938 L 6.078125 -2.25 C 5.886719 -1.652344 5.527344 -1.101562 4.996094 -0.59375 C 4.46875 -0.0859375 3.820312 0.167969 3.054688 0.167969 C 2.171875 0.167969 1.488281 -0.164062 1.003906 -0.832031 C 0.523438 -1.5 0.28125 -2.269531 0.28125 -3.136719 C 0.28125 -4.082031 0.5625 -4.898438 1.121094 -5.585938 C 1.679688 -6.273438 2.410156 -6.617188 3.308594 -6.617188 Z M 2.898438 -6.101562 C 2.363281 -6.101562 1.953125 -5.863281 1.671875 -5.386719 C 1.519531 -5.132812 1.414062 -4.816406 1.347656 -4.429688 L 4.324219 -4.429688 C 4.273438 -4.898438 4.183594 -5.25 4.054688 -5.480469 C 3.824219 -5.894531 3.441406 -6.101562 2.898438 -6.101562 Z "/>
</g>
<g id="glyph-0-1">
<path d="M 3.144531 -4.851562 C 3.144531 -2.914062 3.027344 -1.589844 2.785156 -0.882812 C 2.664062 -0.503906 2.507812 -0.238281 2.3125 -0.0859375 C 2.121094 0.0664062 1.890625 0.140625 1.628906 0.140625 C 1.34375 0.140625 1.125 0.0742188 0.980469 -0.0546875 C 0.824219 -0.171875 0.714844 -0.328125 0.648438 -0.523438 C 0.59375 -0.714844 0.558594 -0.925781 0.550781 -1.15625 C 0.539062 -1.378906 0.53125 -1.597656 0.523438 -1.820312 L 0.882812 -1.820312 C 0.882812 -1.644531 0.929688 -1.460938 1.023438 -1.269531 C 1.121094 -1.066406 1.273438 -0.960938 1.472656 -0.953125 C 1.933594 -0.960938 2.261719 -1.359375 2.453125 -2.152344 C 2.628906 -2.921875 2.714844 -3.957031 2.714844 -5.253906 L 2.714844 -5.691406 L 1.945312 -5.691406 C 1.667969 -5.691406 1.457031 -5.625 1.3125 -5.488281 C 1.160156 -5.355469 1.058594 -5.179688 1.007812 -4.964844 L 0.648438 -4.964844 C 0.707031 -5.285156 0.773438 -5.566406 0.851562 -5.804688 C 0.9375 -6.035156 1.058594 -6.222656 1.214844 -6.367188 C 1.378906 -6.515625 1.609375 -6.625 1.902344 -6.699219 C 2.195312 -6.757812 2.566406 -6.785156 3.019531 -6.785156 C 4.722656 -6.757812 6.199219 -6.71875 7.453125 -6.671875 C 7.664062 -6.671875 7.816406 -6.722656 7.898438 -6.820312 C 7.96875 -6.894531 8.007812 -6.980469 8.019531 -7.074219 L 8.308594 -7.074219 C 8.292969 -6.527344 8.191406 -6.160156 8.003906 -5.964844 C 7.820312 -5.773438 7.542969 -5.683594 7.164062 -5.691406 L 6.425781 -5.691406 L 6.425781 -1.433594 C 6.40625 -0.746094 6.617188 -0.398438 7.058594 -0.386719 C 7.234375 -0.386719 7.375 -0.457031 7.484375 -0.59375 C 7.585938 -0.71875 7.667969 -0.867188 7.730469 -1.035156 C 7.824219 -1.429688 7.871094 -1.816406 7.871094 -2.195312 L 8.230469 -2.195312 C 8.230469 -1.964844 8.222656 -1.714844 8.203125 -1.445312 C 8.164062 -1.183594 8.09375 -0.929688 7.984375 -0.691406 C 7.890625 -0.460938 7.730469 -0.269531 7.511719 -0.113281 C 7.300781 0.046875 7.011719 0.132812 6.644531 0.140625 C 6.355469 0.140625 6.121094 0.0898438 5.9375 -0.015625 C 5.746094 -0.121094 5.589844 -0.257812 5.472656 -0.417969 C 5.25 -0.773438 5.144531 -1.160156 5.15625 -1.574219 L 5.15625 -5.691406 L 3.144531 -5.691406 Z "/>
</g>
<g id="glyph-0-2">
<rect x="0" y="0" width="0" height="0" mask="url(#mask-0)"/>
</g>
<g id="glyph-0-3">
<path d="M 3.589844 -7.300781 L 4.578125 -7.300781 L 4.578125 -4.140625 L 7.722656 -4.140625 L 7.722656 -3.152344 L 4.578125 -3.152344 L 4.578125 0 L 3.589844 0 L 3.589844 -3.152344 L 0.429688 -3.152344 L 0.429688 -4.140625 L 3.589844 -4.140625 Z "/>
</g>
<g id="glyph-0-4">
<path d="M 4.273438 -9.691406 C 4.292969 -9.667969 4.304688 -9.648438 4.304688 -9.636719 C 4.308594 -9.625 4.308594 -9.597656 4.308594 -9.558594 L 4.308594 -1.066406 C 4.308594 -0.703125 4.40625 -0.472656 4.597656 -0.375 C 4.789062 -0.277344 5.152344 -0.214844 5.675781 -0.199219 L 5.675781 0 L 1.699219 0 L 1.699219 -0.210938 C 2.269531 -0.238281 2.640625 -0.316406 2.8125 -0.445312 C 2.988281 -0.570312 3.074219 -0.847656 3.074219 -1.269531 L 3.074219 -7.800781 C 3.074219 -8.027344 3.046875 -8.199219 2.992188 -8.316406 C 2.933594 -8.433594 2.8125 -8.492188 2.625 -8.492188 C 2.5 -8.492188 2.34375 -8.457031 2.148438 -8.390625 C 1.953125 -8.320312 1.769531 -8.25 1.601562 -8.175781 L 1.601562 -8.371094 L 4.1875 -9.691406 Z "/>
</g>
<g id="glyph-0-5">
<path d="M 7.722656 -2.6875 L 7.722656 -1.699219 L 0.429688 -1.699219 L 0.429688 -2.6875 Z M 7.722656 -5.601562 L 7.722656 -4.613281 L 0.429688 -4.613281 L 0.429688 -5.601562 Z "/>
</g>
<g id="glyph-0-6">
<path d="M 3.457031 -0.261719 C 4.148438 -0.261719 4.621094 -0.640625 4.878906 -1.394531 C 5.136719 -2.152344 5.269531 -3.25 5.269531 -4.683594 C 5.269531 -5.824219 5.191406 -6.738281 5.035156 -7.417969 C 4.742188 -8.6875 4.199219 -9.324219 3.398438 -9.324219 C 2.601562 -9.324219 2.050781 -8.671875 1.757812 -7.363281 C 1.601562 -6.667969 1.523438 -5.75 1.523438 -4.613281 C 1.523438 -3.546875 1.601562 -2.691406 1.761719 -2.050781 C 2.0625 -0.859375 2.628906 -0.261719 3.457031 -0.261719 Z M 3.433594 -9.703125 C 4.515625 -9.703125 5.355469 -9.136719 5.953125 -8.003906 C 6.425781 -7.085938 6.664062 -6.035156 6.664062 -4.84375 C 6.664062 -3.910156 6.519531 -3.027344 6.226562 -2.199219 C 5.675781 -0.644531 4.726562 0.132812 3.371094 0.132812 C 2.445312 0.132812 1.683594 -0.285156 1.085938 -1.128906 C 0.445312 -2.027344 0.125 -3.246094 0.125 -4.789062 C 0.125 -6.003906 0.339844 -7.046875 0.769531 -7.921875 C 1.347656 -9.109375 2.234375 -9.703125 3.433594 -9.703125 Z "/>
</g>
<g id="glyph-1-0">
<path d="M 1.042969 -6.515625 L 1.042969 -11.136719 L 2.085938 -11.136719 L 2.085938 -6.515625 Z M 1.042969 -11.84375 L 1.042969 -12.78125 L 2.085938 -12.78125 L 2.085938 -11.84375 Z "/>
</g>
</g>
<image id="source-8" x="0" y="0" width="0" height="0"/>
<mask id="mask-0">
<use xlink:href="#source-8"/>
</mask>
</defs>
<g fill="rgb(96.078431%, 96.862745%, 98.039216%)" fill-opacity="1">
<use xlink:href="#glyph-0-0" x="30" y="33.964844"/>
</g>
<g fill="rgb(96.078431%, 96.862745%, 98.039216%)" fill-opacity="1">
<use xlink:href="#glyph-1-0" x="36" y="33.964844"/>
</g>
<g fill="rgb(96.078431%, 96.862745%, 98.039216%)" fill-opacity="1">
<use xlink:href="#glyph-0-1" x="39" y="33.964844"/>
<use xlink:href="#glyph-0-2" x="47" y="33.964844"/>
<use xlink:href="#glyph-0-3" x="51" y="33.964844"/>
<use xlink:href="#glyph-0-2" x="59" y="33.964844"/>
<use xlink:href="#glyph-0-4" x="63" y="33.964844"/>
<use xlink:href="#glyph-0-2" x="70" y="33.964844"/>
<use xlink:href="#glyph-0-5" x="74" y="33.964844"/>
<use xlink:href="#glyph-0-2" x="82" y="33.964844"/>
<use xlink:href="#glyph-0-6" x="86" y="33.964844"/>
</g>
</svg>
