<?xml version="1.0" encoding="UTF-8"?>
<svg xmlns="http://www.w3.org/2000/svg" xmlns:xlink="http://www.w3.org/1999/xlink" width="1920" height="1080" viewBox="0 0 1920 1080">
<defs>
<g>
<g id="glyph-0-0">
<path d="M 3.046875 -3.941406 C 3.742188 -3.953125 4.207031 -4.035156 4.4375 -4.179688 C 4.804688 -4.417969 4.992188 -4.925781 4.992188 -5.703125 C 4.992188 -6.234375 4.902344 -6.664062 4.722656 -6.988281 C 4.542969 -7.316406 4.203125 -7.480469 3.695312 -7.480469 C 3.464844 -7.480469 3.300781 -7.453125 3.199219 -7.398438 C 3.097656 -7.34375 3.046875 -7.234375 3.046875 -7.074219 Z M 0.1875 -0.296875 C 0.570312 -0.324219 0.828125 -0.402344 0.960938 -0.539062 C 1.089844 -0.671875 1.15625 -0.949219 1.15625 -1.363281 L 1.15625 -6.515625 C 1.15625 -6.957031 1.089844 -7.234375 0.957031 -7.351562 C 0.824219 -7.46875 0.566406 -7.546875 0.1875 -7.589844 L 0.1875 -7.882812 L 3.941406 -7.882812 C 4.9375 -7.882812 5.695312 -7.722656 6.210938 -7.398438 C 6.730469 -7.078125 6.988281 -6.523438 6.988281 -5.738281 C 6.988281 -5.355469 6.886719 -4.992188 6.683594 -4.65625 C 6.480469 -4.320312 6.148438 -4.050781 5.679688 -3.84375 C 5.328125 -3.699219 4.972656 -3.613281 4.621094 -3.582031 C 4.265625 -3.550781 3.742188 -3.539062 3.046875 -3.539062 L 3.046875 -1.363281 C 3.046875 -0.933594 3.121094 -0.652344 3.265625 -0.519531 C 3.410156 -0.386719 3.679688 -0.3125 4.074219 -0.296875 L 4.074219 0 L 0.1875 0 Z "/>
</g>
<g id="glyph-0-1">
<path d="M 2.558594 -0.667969 C 2.746094 -0.667969 2.925781 -0.722656 3.085938 -0.835938 C 3.179688 -0.90625 3.285156 -1.011719 3.414062 -1.15625 L 3.414062 -2.859375 C 3.101562 -2.785156 2.828125 -2.664062 2.59375 -2.5 C 2.195312 -2.222656 1.992188 -1.871094 1.992188 -1.441406 C 1.992188 -1.1875 2.050781 -0.992188 2.167969 -0.863281 C 2.285156 -0.730469 2.414062 -0.667969 2.558594 -0.667969 Z M 0.296875 -1.089844 C 0.296875 -1.613281 0.546875 -2.027344 1.054688 -2.335938 C 1.558594 -2.644531 2.351562 -2.953125 3.429688 -3.265625 L 3.429688 -4.113281 C 3.429688 -4.457031 3.355469 -4.714844 3.210938 -4.878906 C 3.0625 -5.042969 2.804688 -5.128906 2.433594 -5.128906 C 2.222656 -5.128906 2.050781 -5.089844 1.917969 -5.011719 C 1.78125 -4.933594 1.714844 -4.835938 1.714844 -4.71875 C 1.714844 -4.671875 1.722656 -4.632812 1.738281 -4.601562 C 1.753906 -4.570312 1.777344 -4.539062 1.804688 -4.507812 L 1.875 -4.425781 C 1.925781 -4.363281 1.96875 -4.289062 2.003906 -4.210938 C 2.035156 -4.132812 2.050781 -4.050781 2.050781 -3.964844 C 2.050781 -3.746094 1.976562 -3.574219 1.832031 -3.457031 C 1.683594 -3.335938 1.515625 -3.277344 1.320312 -3.277344 C 1.097656 -3.277344 0.90625 -3.34375 0.75 -3.476562 C 0.59375 -3.609375 0.511719 -3.800781 0.511719 -4.050781 C 0.511719 -4.5 0.722656 -4.855469 1.144531 -5.117188 C 1.566406 -5.378906 2.085938 -5.507812 2.699219 -5.507812 C 3.359375 -5.507812 3.914062 -5.382812 4.359375 -5.128906 C 4.800781 -4.871094 5.019531 -4.394531 5.019531 -3.703125 L 5.019531 -0.878906 C 5.019531 -0.792969 5.039062 -0.722656 5.085938 -0.664062 C 5.128906 -0.605469 5.175781 -0.574219 5.230469 -0.574219 C 5.277344 -0.574219 5.316406 -0.582031 5.351562 -0.601562 C 5.386719 -0.617188 5.445312 -0.664062 5.519531 -0.742188 L 5.695312 -0.496094 C 5.46875 -0.230469 5.214844 -0.0429688 4.9375 0.0625 C 4.765625 0.132812 4.582031 0.164062 4.386719 0.164062 C 4.039062 0.164062 3.789062 0.0664062 3.628906 -0.136719 C 3.539062 -0.25 3.472656 -0.417969 3.429688 -0.644531 C 3.105469 -0.320312 2.742188 -0.09375 2.335938 0.0390625 C 2.089844 0.125 1.847656 0.164062 1.605469 0.164062 C 1.289062 0.164062 0.988281 0.0625 0.710938 -0.140625 C 0.433594 -0.34375 0.296875 -0.660156 0.296875 -1.089844 Z "/>
</g>
<g id="glyph-0-2">
<path d="M 0.296875 -1.765625 L 0.621094 -1.765625 C 0.734375 -1.207031 0.949219 -0.8125 1.257812 -0.582031 C 1.570312 -0.355469 1.890625 -0.238281 2.214844 -0.238281 C 2.515625 -0.238281 2.738281 -0.308594 2.875 -0.441406 C 3.015625 -0.578125 3.085938 -0.753906 3.085938 -0.972656 C 3.085938 -1.183594 3.011719 -1.363281 2.859375 -1.507812 C 2.777344 -1.589844 2.640625 -1.675781 2.457031 -1.765625 L 1.589844 -2.1875 C 1.132812 -2.410156 0.808594 -2.65625 0.609375 -2.917969 C 0.410156 -3.179688 0.308594 -3.488281 0.308594 -3.84375 C 0.308594 -4.296875 0.464844 -4.6875 0.78125 -5.015625 C 1.097656 -5.34375 1.535156 -5.507812 2.101562 -5.507812 C 2.347656 -5.507812 2.609375 -5.46875 2.886719 -5.386719 C 3.164062 -5.304688 3.339844 -5.265625 3.40625 -5.265625 C 3.5 -5.265625 3.570312 -5.285156 3.609375 -5.324219 C 3.648438 -5.363281 3.683594 -5.417969 3.707031 -5.492188 L 3.964844 -5.492188 L 3.964844 -3.804688 L 3.667969 -3.804688 C 3.558594 -4.199219 3.378906 -4.515625 3.128906 -4.757812 C 2.878906 -4.996094 2.585938 -5.117188 2.25 -5.117188 C 1.992188 -5.117188 1.800781 -5.042969 1.671875 -4.898438 C 1.542969 -4.753906 1.480469 -4.597656 1.480469 -4.433594 C 1.480469 -4.296875 1.539062 -4.160156 1.652344 -4.023438 C 1.761719 -3.882812 1.972656 -3.738281 2.277344 -3.589844 L 2.917969 -3.28125 C 3.3125 -3.089844 3.601562 -2.90625 3.78125 -2.730469 C 4.085938 -2.425781 4.238281 -2.050781 4.238281 -1.605469 C 4.238281 -1.171875 4.082031 -0.769531 3.769531 -0.394531 C 3.457031 -0.0195312 2.984375 0.164062 2.359375 0.164062 C 2.203125 0.164062 2.046875 0.148438 1.886719 0.117188 C 1.730469 0.0859375 1.535156 0.0273438 1.304688 -0.0507812 L 1.105469 -0.121094 C 1.03125 -0.148438 0.988281 -0.160156 0.972656 -0.164062 C 0.953125 -0.167969 0.933594 -0.171875 0.90625 -0.171875 C 0.839844 -0.171875 0.785156 -0.144531 0.738281 -0.09375 C 0.691406 -0.0429688 0.636719 0.0429688 0.574219 0.164062 L 0.296875 0.164062 Z "/>
</g>
<g id="glyph-0-3">
<path d="M 3.007812 -5.519531 C 3.496094 -5.519531 3.921875 -5.402344 4.28125 -5.160156 C 4.640625 -4.921875 4.820312 -4.613281 4.820312 -4.238281 C 4.820312 -4.035156 4.75 -3.863281 4.605469 -3.714844 C 4.464844 -3.566406 4.28125 -3.492188 4.0625 -3.492188 C 3.914062 -3.492188 3.785156 -3.527344 3.675781 -3.59375 C 3.464844 -3.714844 3.359375 -3.9375 3.359375 -4.253906 C 3.359375 -4.289062 3.363281 -4.339844 3.367188 -4.40625 C 3.371094 -4.472656 3.371094 -4.542969 3.371094 -4.621094 C 3.371094 -4.824219 3.324219 -4.964844 3.230469 -5.042969 C 3.132812 -5.117188 3.019531 -5.15625 2.894531 -5.15625 C 2.535156 -5.15625 2.277344 -4.957031 2.125 -4.558594 C 1.972656 -4.164062 1.898438 -3.707031 1.898438 -3.195312 C 1.898438 -2.464844 2.042969 -1.855469 2.328125 -1.363281 C 2.617188 -0.867188 3.007812 -0.621094 3.496094 -0.621094 C 3.804688 -0.621094 4.066406 -0.6875 4.285156 -0.824219 C 4.414062 -0.90625 4.574219 -1.050781 4.761719 -1.265625 L 4.980469 -1.066406 C 4.601562 -0.539062 4.15625 -0.175781 3.644531 0.0234375 C 3.375 0.125 3.089844 0.175781 2.785156 0.175781 C 2.039062 0.175781 1.425781 -0.0898438 0.953125 -0.625 C 0.476562 -1.160156 0.238281 -1.816406 0.238281 -2.585938 C 0.238281 -3.398438 0.492188 -4.089844 0.992188 -4.664062 C 1.496094 -5.234375 2.167969 -5.519531 3.007812 -5.519531 Z "/>
</g>
<g id="glyph-0-4">
<path d="M 0.1875 -0.277344 C 0.394531 -0.328125 0.539062 -0.394531 0.625 -0.476562 C 0.710938 -0.558594 0.753906 -0.726562 0.753906 -0.984375 L 0.753906 -6.925781 C 0.753906 -7.171875 0.710938 -7.335938 0.632812 -7.410156 C 0.554688 -7.488281 0.40625 -7.550781 0.1875 -7.597656 L 0.1875 -7.882812 L 2.398438 -7.882812 L 2.398438 -0.984375 C 2.398438 -0.726562 2.441406 -0.558594 2.523438 -0.480469 C 2.605469 -0.398438 2.753906 -0.332031 2.96875 -0.277344 L 2.96875 0 L 0.1875 0 Z "/>
</g>
</g>
</defs>
<g fill="rgb(30.196078%, 65.098039%, 100%)" fill-opacity="1">
<use xlink:href="#glyph-0-0" x="30" y="28.75"/>
<use xlink:href="#glyph-0-1" x="37" y="28.75"/>
<use xlink:href="#glyph-0-2" x="43" y="28.75"/>
<use xlink:href="#glyph-0-3" x="48" y="28.75"/>
<use xlink:href="#glyph-0-1" x="53" y="28.75"/>
<use xlink:href="#glyph-0-4" x="59" y="28.75"/>
</g>
</svg>
