<?xml version="1.0" encoding="UTF-8"?>
<svg xmlns="http://www.w3.org/2000/svg" xmlns:xlink="http://www.w3.org/1999/xlink" width="1920" height="1080" viewBox="0 0 1920 1080">
<defs>
<g>
<g id="glyph-0-0">
<path d="M 0.421875 -2.851562 L 0.777344 -2.851562 C 0.976562 -1.941406 1.296875 -1.277344 1.738281 -0.867188 C 2.183594 -0.453125 2.691406 -0.246094 3.265625 -0.246094 C 3.820312 -0.246094 4.21875 -0.386719 4.453125 -0.671875 C 4.6875 -0.957031 4.804688 -1.253906 4.804688 -1.570312 C 4.804688 -1.9375 4.679688 -2.234375 4.433594 -2.464844 C 4.269531 -2.617188 3.941406 -2.8125 3.449219 -3.054688 L 2.65625 -3.449219 C 1.867188 -3.839844 1.3125 -4.226562 0.992188 -4.605469 C 0.667969 -4.988281 0.507812 -5.460938 0.507812 -6.023438 C 0.507812 -6.621094 0.722656 -7.175781 1.148438 -7.691406 C 1.578125 -8.210938 2.230469 -8.46875 3.117188 -8.46875 C 3.566406 -8.46875 4 -8.402344 4.417969 -8.265625 C 4.839844 -8.128906 5.078125 -8.0625 5.136719 -8.0625 C 5.273438 -8.0625 5.367188 -8.101562 5.417969 -8.179688 C 5.46875 -8.257812 5.511719 -8.359375 5.542969 -8.488281 L 5.910156 -8.488281 L 5.910156 -5.824219 L 5.566406 -5.824219 C 5.40625 -6.441406 5.117188 -6.972656 4.707031 -7.417969 C 4.292969 -7.863281 3.792969 -8.085938 3.203125 -8.085938 C 2.789062 -8.085938 2.464844 -7.972656 2.222656 -7.75 C 1.980469 -7.523438 1.863281 -7.25 1.863281 -6.929688 C 1.863281 -6.542969 1.976562 -6.253906 2.203125 -6.0625 C 2.425781 -5.867188 2.921875 -5.582031 3.6875 -5.203125 L 4.605469 -4.75 C 5.015625 -4.546875 5.34375 -4.324219 5.585938 -4.078125 C 6.039062 -3.617188 6.265625 -3.054688 6.265625 -2.394531 C 6.265625 -1.777344 6.023438 -1.195312 5.535156 -0.648438 C 5.046875 -0.101562 4.265625 0.171875 3.191406 0.171875 C 2.945312 0.171875 2.695312 0.148438 2.445312 0.105469 C 2.191406 0.0585938 1.941406 -0.0117188 1.695312 -0.109375 L 1.457031 -0.195312 C 1.402344 -0.210938 1.347656 -0.226562 1.296875 -0.234375 C 1.242188 -0.246094 1.199219 -0.25 1.164062 -0.25 C 1.035156 -0.25 0.949219 -0.214844 0.902344 -0.140625 C 0.855469 -0.0664062 0.8125 0.0390625 0.777344 0.171875 L 0.421875 0.171875 Z "/>
</g>
<g id="glyph-0-1">
<path d="M 0.269531 -2.800781 C 0.269531 -3.652344 0.53125 -4.359375 1.054688 -4.929688 C 1.578125 -5.5 2.234375 -5.78125 3.027344 -5.78125 C 3.835938 -5.78125 4.496094 -5.492188 5.011719 -4.910156 C 5.527344 -4.332031 5.78125 -3.625 5.78125 -2.800781 C 5.78125 -1.984375 5.527344 -1.28125 5.019531 -0.695312 C 4.511719 -0.109375 3.84375 0.183594 3.027344 0.183594 C 2.230469 0.183594 1.570312 -0.101562 1.050781 -0.671875 C 0.53125 -1.242188 0.269531 -1.953125 0.269531 -2.800781 Z M 2.066406 -2.800781 C 2.066406 -1.945312 2.109375 -1.34375 2.195312 -1.003906 C 2.335938 -0.472656 2.613281 -0.207031 3.027344 -0.207031 C 3.421875 -0.207031 3.679688 -0.410156 3.800781 -0.816406 C 3.925781 -1.222656 3.988281 -1.882812 3.988281 -2.800781 C 3.988281 -3.710938 3.921875 -4.371094 3.792969 -4.777344 C 3.664062 -5.183594 3.410156 -5.390625 3.03125 -5.390625 C 2.617188 -5.390625 2.339844 -5.125 2.203125 -4.59375 C 2.109375 -4.242188 2.066406 -3.640625 2.066406 -2.800781 Z "/>
</g>
<g id="glyph-0-2">
<path d="M 0.195312 -0.292969 C 0.410156 -0.34375 0.5625 -0.414062 0.652344 -0.5 C 0.742188 -0.585938 0.789062 -0.761719 0.789062 -1.03125 L 0.789062 -7.257812 C 0.789062 -7.515625 0.746094 -7.683594 0.664062 -7.765625 C 0.578125 -7.84375 0.421875 -7.910156 0.195312 -7.960938 L 0.195312 -8.261719 L 2.511719 -8.261719 L 2.511719 -1.03125 C 2.511719 -0.761719 2.554688 -0.585938 2.644531 -0.5 C 2.730469 -0.417969 2.886719 -0.347656 3.109375 -0.292969 L 3.109375 0 L 0.195312 0 Z "/>
</g>
<g id="glyph-0-3">
<path d="M 3.253906 -5.628906 L 3.253906 -5.328125 C 3.039062 -5.320312 2.875 -5.296875 2.765625 -5.257812 C 2.65625 -5.21875 2.601562 -5.132812 2.601562 -5 C 2.601562 -4.96875 2.617188 -4.910156 2.648438 -4.824219 C 2.675781 -4.738281 2.699219 -4.675781 2.714844 -4.636719 L 3.632812 -2.292969 L 3.730469 -2.292969 L 4.554688 -4.378906 C 4.59375 -4.480469 4.625 -4.582031 4.652344 -4.683594 C 4.679688 -4.789062 4.691406 -4.871094 4.691406 -4.929688 C 4.691406 -5.101562 4.632812 -5.210938 4.519531 -5.253906 C 4.402344 -5.300781 4.234375 -5.324219 4.015625 -5.328125 L 4.015625 -5.628906 L 5.867188 -5.628906 L 5.867188 -5.328125 C 5.703125 -5.316406 5.570312 -5.265625 5.464844 -5.171875 C 5.363281 -5.078125 5.261719 -4.910156 5.164062 -4.667969 L 3.191406 0.171875 L 2.882812 0.171875 L 1.414062 -3.449219 C 1.3125 -3.703125 1.210938 -3.941406 1.113281 -4.164062 C 1.015625 -4.386719 0.914062 -4.605469 0.804688 -4.816406 C 0.695312 -5.03125 0.605469 -5.167969 0.542969 -5.222656 C 0.480469 -5.277344 0.363281 -5.3125 0.195312 -5.328125 L 0.195312 -5.628906 Z "/>
</g>
<g id="glyph-0-4">
<path d="M 0.273438 -2.804688 C 0.273438 -3.742188 0.523438 -4.472656 1.023438 -4.992188 C 1.523438 -5.511719 2.125 -5.769531 2.828125 -5.769531 C 3.230469 -5.769531 3.609375 -5.664062 3.960938 -5.453125 C 4.316406 -5.242188 4.589844 -4.953125 4.78125 -4.578125 C 4.925781 -4.296875 5.023438 -3.929688 5.078125 -3.480469 C 5.105469 -3.269531 5.121094 -3.105469 5.121094 -2.996094 L 2.003906 -2.996094 C 2.03125 -2.507812 2.113281 -2.082031 2.242188 -1.726562 C 2.480469 -1.054688 2.902344 -0.714844 3.503906 -0.714844 C 3.789062 -0.714844 4.058594 -0.804688 4.316406 -0.984375 C 4.46875 -1.09375 4.664062 -1.273438 4.894531 -1.527344 L 5.175781 -1.355469 C 4.796875 -0.734375 4.359375 -0.300781 3.863281 -0.0585938 C 3.539062 0.0976562 3.167969 0.171875 2.75 0.171875 C 2.148438 0.171875 1.585938 -0.0625 1.0625 -0.539062 C 0.539062 -1.011719 0.273438 -1.765625 0.273438 -2.804688 Z M 3.617188 -3.449219 C 3.609375 -4.167969 3.554688 -4.671875 3.449219 -4.960938 C 3.347656 -5.246094 3.140625 -5.390625 2.828125 -5.390625 C 2.511719 -5.390625 2.292969 -5.222656 2.175781 -4.894531 C 2.058594 -4.5625 1.992188 -4.082031 1.976562 -3.449219 Z "/>
</g>
</g>
</defs>
<g fill="rgb(30.196078%, 65.098039%, 100%)" fill-opacity="1">
<use xlink:href="#glyph-0-0" x="30" y="29.166992"/>
<use xlink:href="#glyph-0-1" x="37" y="29.166992"/>
<use xlink:href="#glyph-0-2" x="43" y="29.166992"/>
<use xlink:href="#glyph-0-3" x="46" y="29.166992"/>
<use xlink:href="#glyph-0-4" x="52" y="29.166992"/>
</g>
</svg>
