<?xml version="1.0" encoding="UTF-8"?>
<svg xmlns="http://www.w3.org/2000/svg" xmlns:xlink="http://www.w3.org/1999/xlink" width="1920" height="1080" viewBox="0 0 1920 1080">
<defs>
<g>
<g id="glyph-0-0">
<path d="M 1.488281 -0.53125 C 2.617188 -0.53125 3.339844 -0.683594 3.65625 -0.992188 C 3.976562 -1.300781 4.132812 -1.882812 4.132812 -2.746094 L 4.132812 -11.308594 C 4.132812 -11.855469 4.070312 -12.246094 3.945312 -12.480469 C 3.816406 -12.710938 3.585938 -12.824219 3.246094 -12.824219 C 3.0625 -12.824219 2.785156 -12.765625 2.410156 -12.640625 C 2.171875 -12.570312 1.84375 -12.453125 1.433594 -12.292969 L 1.433594 -12.859375 L 7.042969 -15.277344 L 7.433594 -15.277344 L 7.433594 -2.613281 C 7.433594 -1.804688 7.5625 -1.253906 7.824219 -0.964844 C 8.085938 -0.675781 8.75 -0.53125 9.820312 -0.53125 L 9.820312 0 L 1.488281 0 Z "/>
</g>
<g id="glyph-0-1">
<path d="M 1.800781 -2.972656 C 2.472656 -2.972656 3.167969 -2.609375 3.878906 -1.882812 C 4.589844 -1.15625 5.179688 -0.792969 5.640625 -0.792969 C 6.4375 -0.792969 7.007812 -1.0625 7.351562 -1.601562 C 7.695312 -2.140625 7.867188 -2.753906 7.867188 -3.441406 C 7.867188 -4.707031 7.335938 -5.738281 6.273438 -6.542969 C 5.664062 -6.992188 4.703125 -7.449219 3.386719 -7.921875 L 3.386719 -8.277344 C 4.28125 -8.589844 4.921875 -8.890625 5.304688 -9.179688 C 5.964844 -9.679688 6.292969 -10.355469 6.292969 -11.210938 C 6.292969 -11.949219 6.070312 -12.507812 5.625 -12.894531 C 5.179688 -13.28125 4.617188 -13.476562 3.929688 -13.476562 C 3.292969 -13.476562 2.714844 -13.246094 2.203125 -12.78125 C 1.914062 -12.523438 1.605469 -12.136719 1.28125 -11.621094 L 0.8125 -11.882812 C 1.160156 -12.621094 1.65625 -13.277344 2.300781 -13.855469 C 3.328125 -14.78125 4.527344 -15.246094 5.902344 -15.246094 C 6.851562 -15.246094 7.675781 -14.976562 8.375 -14.441406 C 9.078125 -13.90625 9.464844 -13.210938 9.539062 -12.347656 C 9.539062 -11.734375 9.402344 -11.183594 9.132812 -10.703125 C 8.859375 -10.222656 8.421875 -9.828125 7.8125 -9.515625 L 7.8125 -9.351562 C 8.703125 -9 9.351562 -8.464844 9.765625 -7.753906 C 10.179688 -7.039062 10.382812 -6.289062 10.382812 -5.5 C 10.382812 -3.910156 9.769531 -2.554688 8.539062 -1.433594 C 7.257812 -0.253906 5.640625 0.335938 3.679688 0.335938 C 2.722656 0.335938 1.929688 0.15625 1.292969 -0.207031 C 0.65625 -0.566406 0.335938 -1.046875 0.335938 -1.636719 C 0.335938 -1.957031 0.449219 -2.257812 0.679688 -2.542969 C 0.90625 -2.828125 1.28125 -2.972656 1.800781 -2.972656 Z "/>
</g>
</g>
</defs>
<g fill="rgb(96.078431%, 96.862745%, 98.039216%)" fill-opacity="1">
<use xlink:href="#glyph-0-0" x="30" y="36.666992"/>
<use xlink:href="#glyph-0-1" x="41" y="36.666992"/>
</g>
</svg>
