<?xml version="1.0" encoding="UTF-8"?>
<svg xmlns="http://www.w3.org/2000/svg" xmlns:xlink="http://www.w3.org/1999/xlink" width="1920" height="1080" viewBox="0 0 1920 1080">
<defs>
<g>
<g id="glyph-0-0">
<path d="M 3.183594 -3.003906 C 2.769531 -2.867188 2.425781 -2.714844 2.152344 -2.550781 C 1.632812 -2.226562 1.371094 -1.863281 1.371094 -1.453125 C 1.371094 -1.125 1.480469 -0.882812 1.699219 -0.726562 C 1.839844 -0.625 1.996094 -0.574219 2.171875 -0.574219 C 2.410156 -0.574219 2.636719 -0.640625 2.855469 -0.777344 C 3.074219 -0.910156 3.183594 -1.078125 3.183594 -1.285156 Z M 0.40625 -1.078125 C 0.40625 -1.601562 0.667969 -2.042969 1.195312 -2.390625 C 1.527344 -2.609375 2.191406 -2.902344 3.183594 -3.277344 L 3.183594 -3.738281 C 3.183594 -4.105469 3.148438 -4.363281 3.074219 -4.507812 C 2.953125 -4.75 2.699219 -4.871094 2.3125 -4.871094 C 2.128906 -4.871094 1.953125 -4.824219 1.785156 -4.730469 C 1.617188 -4.632812 1.535156 -4.5 1.535156 -4.328125 C 1.535156 -4.285156 1.542969 -4.210938 1.5625 -4.109375 C 1.582031 -4.007812 1.589844 -3.941406 1.589844 -3.910156 C 1.589844 -3.707031 1.523438 -3.566406 1.390625 -3.488281 C 1.3125 -3.441406 1.222656 -3.417969 1.117188 -3.417969 C 0.953125 -3.417969 0.828125 -3.472656 0.742188 -3.578125 C 0.65625 -3.683594 0.613281 -3.804688 0.613281 -3.933594 C 0.613281 -4.1875 0.769531 -4.453125 1.082031 -4.726562 C 1.394531 -5.003906 1.855469 -5.144531 2.457031 -5.144531 C 3.160156 -5.144531 3.632812 -4.914062 3.882812 -4.460938 C 4.019531 -4.210938 4.085938 -3.847656 4.085938 -3.367188 L 4.085938 -1.195312 C 4.085938 -0.984375 4.097656 -0.839844 4.128906 -0.757812 C 4.175781 -0.617188 4.273438 -0.546875 4.421875 -0.546875 C 4.503906 -0.546875 4.574219 -0.5625 4.628906 -0.585938 C 4.683594 -0.609375 4.777344 -0.671875 4.910156 -0.769531 L 4.910156 -0.488281 C 4.792969 -0.347656 4.667969 -0.230469 4.535156 -0.140625 C 4.332031 -0.00390625 4.125 0.0664062 3.917969 0.0664062 C 3.671875 0.0664062 3.492188 -0.015625 3.382812 -0.171875 C 3.273438 -0.332031 3.210938 -0.523438 3.199219 -0.742188 C 2.925781 -0.503906 2.691406 -0.328125 2.496094 -0.210938 C 2.167969 -0.015625 1.855469 0.0820312 1.558594 0.0820312 C 1.246094 0.0820312 0.976562 -0.0273438 0.75 -0.246094 C 0.519531 -0.464844 0.40625 -0.742188 0.40625 -1.078125 Z "/>
</g>
<g id="glyph-0-1">
<rect x="0" y="0" width="0" height="0" mask="url(#mask-0)"/>
</g>
<g id="glyph-0-2">
<path d="M 2.761719 -5.117188 C 3.214844 -5.117188 3.601562 -5 3.929688 -4.765625 C 4.257812 -4.53125 4.421875 -4.277344 4.421875 -4 C 4.421875 -3.878906 4.378906 -3.769531 4.296875 -3.664062 C 4.214844 -3.5625 4.085938 -3.511719 3.910156 -3.511719 C 3.785156 -3.511719 3.671875 -3.554688 3.578125 -3.640625 C 3.480469 -3.726562 3.414062 -3.855469 3.367188 -4.019531 L 3.304688 -4.28125 C 3.257812 -4.472656 3.175781 -4.609375 3.058594 -4.6875 C 2.941406 -4.761719 2.78125 -4.800781 2.585938 -4.800781 C 2.175781 -4.800781 1.828125 -4.621094 1.542969 -4.261719 C 1.257812 -3.902344 1.117188 -3.421875 1.117188 -2.828125 C 1.117188 -2.28125 1.273438 -1.789062 1.585938 -1.355469 C 1.898438 -0.921875 2.320312 -0.707031 2.855469 -0.707031 C 3.230469 -0.707031 3.5625 -0.828125 3.855469 -1.074219 C 4.023438 -1.214844 4.210938 -1.4375 4.421875 -1.746094 L 4.574219 -1.65625 C 4.367188 -1.222656 4.148438 -0.878906 3.921875 -0.625 C 3.484375 -0.140625 2.976562 0.101562 2.402344 0.101562 C 1.839844 0.101562 1.339844 -0.121094 0.90625 -0.5625 C 0.472656 -1.007812 0.253906 -1.613281 0.253906 -2.375 C 0.253906 -3.125 0.492188 -3.769531 0.964844 -4.308594 C 1.4375 -4.847656 2.039062 -5.117188 2.761719 -5.117188 Z "/>
</g>
<g id="glyph-0-3">
<path d="M 0.226562 -0.152344 C 0.5625 -0.183594 0.792969 -0.253906 0.910156 -0.355469 C 1.03125 -0.457031 1.089844 -0.660156 1.089844 -0.960938 L 1.089844 -6.261719 C 1.089844 -6.5 1.070312 -6.664062 1.03125 -6.753906 C 0.957031 -6.90625 0.8125 -6.980469 0.589844 -6.980469 C 0.539062 -6.980469 0.484375 -6.976562 0.425781 -6.964844 C 0.367188 -6.953125 0.292969 -6.9375 0.199219 -6.917969 L 0.199219 -7.097656 C 0.6875 -7.226562 1.277344 -7.398438 1.964844 -7.617188 C 1.988281 -7.617188 2.003906 -7.605469 2.011719 -7.585938 C 2.015625 -7.5625 2.019531 -7.515625 2.019531 -7.441406 L 2.019531 -0.9375 C 2.019531 -0.625 2.074219 -0.421875 2.179688 -0.328125 C 2.289062 -0.234375 2.511719 -0.175781 2.855469 -0.152344 L 2.855469 0 L 0.226562 0 Z "/>
</g>
<g id="glyph-0-4">
<path d="M 0.574219 -1.707031 L 0.753906 -1.707031 C 0.835938 -1.296875 0.949219 -0.980469 1.089844 -0.757812 C 1.34375 -0.355469 1.714844 -0.152344 2.203125 -0.152344 C 2.472656 -0.152344 2.6875 -0.226562 2.84375 -0.378906 C 3.003906 -0.527344 3.082031 -0.722656 3.082031 -0.960938 C 3.082031 -1.113281 3.035156 -1.257812 2.945312 -1.398438 C 2.855469 -1.539062 2.695312 -1.679688 2.46875 -1.8125 L 1.859375 -2.160156 C 1.414062 -2.398438 1.089844 -2.636719 0.878906 -2.878906 C 0.667969 -3.121094 0.5625 -3.410156 0.5625 -3.738281 C 0.5625 -4.144531 0.707031 -4.476562 1 -4.734375 C 1.289062 -4.996094 1.652344 -5.125 2.089844 -5.125 C 2.28125 -5.125 2.492188 -5.089844 2.71875 -5.019531 C 2.949219 -4.945312 3.078125 -4.910156 3.109375 -4.910156 C 3.175781 -4.910156 3.21875 -4.917969 3.25 -4.9375 C 3.277344 -4.953125 3.304688 -4.984375 3.324219 -5.023438 L 3.457031 -5.023438 L 3.492188 -3.511719 L 3.324219 -3.511719 C 3.253906 -3.863281 3.15625 -4.132812 3.03125 -4.328125 C 2.808594 -4.691406 2.484375 -4.871094 2.0625 -4.871094 C 1.808594 -4.871094 1.609375 -4.792969 1.464844 -4.636719 C 1.320312 -4.480469 1.246094 -4.300781 1.246094 -4.089844 C 1.246094 -3.757812 1.496094 -3.460938 1.996094 -3.199219 L 2.710938 -2.816406 C 3.480469 -2.394531 3.867188 -1.90625 3.867188 -1.351562 C 3.867188 -0.925781 3.707031 -0.574219 3.386719 -0.304688 C 3.066406 -0.03125 2.648438 0.101562 2.132812 0.101562 C 1.914062 0.101562 1.667969 0.0664062 1.394531 -0.00390625 C 1.121094 -0.078125 0.957031 -0.113281 0.90625 -0.113281 C 0.863281 -0.113281 0.824219 -0.0976562 0.792969 -0.0664062 C 0.761719 -0.0351562 0.734375 0 0.714844 0.0429688 L 0.574219 0.0429688 Z "/>
</g>
<g id="glyph-0-5">
<path d="M 0.910156 -7.003906 C 0.910156 -7.160156 0.964844 -7.292969 1.074219 -7.40625 C 1.183594 -7.519531 1.316406 -7.574219 1.476562 -7.574219 C 1.632812 -7.574219 1.765625 -7.519531 1.875 -7.40625 C 1.984375 -7.296875 2.039062 -7.164062 2.039062 -7.003906 C 2.039062 -6.847656 1.984375 -6.714844 1.875 -6.605469 C 1.765625 -6.496094 1.632812 -6.4375 1.476562 -6.4375 C 1.316406 -6.4375 1.183594 -6.496094 1.074219 -6.605469 C 0.964844 -6.714844 0.910156 -6.847656 0.910156 -7.003906 Z M 0.21875 -0.152344 C 0.605469 -0.1875 0.847656 -0.253906 0.949219 -0.351562 C 1.050781 -0.445312 1.101562 -0.707031 1.101562 -1.128906 L 1.101562 -3.714844 C 1.101562 -3.949219 1.085938 -4.113281 1.050781 -4.203125 C 0.996094 -4.351562 0.882812 -4.425781 0.710938 -4.425781 C 0.671875 -4.425781 0.632812 -4.421875 0.59375 -4.414062 C 0.554688 -4.40625 0.445312 -4.378906 0.265625 -4.328125 L 0.265625 -4.496094 L 0.5 -4.574219 C 1.132812 -4.78125 1.574219 -4.933594 1.824219 -5.039062 C 1.925781 -5.082031 1.988281 -5.105469 2.019531 -5.105469 C 2.027344 -5.078125 2.027344 -5.050781 2.027344 -5.023438 L 2.027344 -1.128906 C 2.027344 -0.714844 2.078125 -0.457031 2.179688 -0.351562 C 2.277344 -0.246094 2.503906 -0.179688 2.855469 -0.152344 L 2.855469 0 L 0.21875 0 Z "/>
</g>
</g>
<image id="source-218" x="0" y="0" width="0" height="0"/>
<mask id="mask-0">
<use xlink:href="#source-218"/>
</mask>
</defs>
<g fill="rgb(30.196078%, 65.098039%, 100%)" fill-opacity="1">
<use xlink:href="#glyph-0-0" x="30" y="28.333008"/>
<use xlink:href="#glyph-0-1" x="35" y="28.333008"/>
<use xlink:href="#glyph-0-2" x="38" y="28.333008"/>
<use xlink:href="#glyph-0-3" x="43" y="28.333008"/>
<use xlink:href="#glyph-0-0" x="46" y="28.333008"/>
<use xlink:href="#glyph-0-4" x="51" y="28.333008"/>
<use xlink:href="#glyph-0-4" x="55" y="28.333008"/>
<use xlink:href="#glyph-0-5" x="59" y="28.333008"/>
<use xlink:href="#glyph-0-2" x="62" y="28.333008"/>
</g>
</svg>
